<?xml version="1.0" standalone="no"?>
 <!DOCTYPE svg PUBLIC "-//W3C//DTD SVG 1.1//EN" 
 "http://www.w3.org/Graphics/SVG/1.1/DTD/svg11.dtd"> 
<svg
  xmlns:svg="http://www.w3.org/2000/svg"
  xmlns="http://www.w3.org/2000/svg"
  xmlns:xlink="http://www.w3.org/1999/xlink"
  version="1.1"
  width="297.002200mm" height="210.007200mm" viewBox="0.000000 0.000000 297.002200 210.007200">
<title>SVG Image created as MainBoard_ESP8266-F_Cu.svg date 2023/05/28 10:55:30 </title>
  <desc>Image generated by PCBNEW </desc>
<g style="fill:#000000; fill-opacity:1.000000;stroke:#000000; stroke-opacity:1.000000;
stroke-linecap:round; stroke-linejoin:round;"
 transform="translate(0 0) scale(1 1)">
</g>
<g style="fill:#000000; fill-opacity:0.0; 
stroke:#000000; stroke-width:0.000000; stroke-opacity:1; 
stroke-linecap:round; stroke-linejoin:round;">
<g >
</g>
<g style="fill:#000000; fill-opacity:1.000000; 
stroke:#000000; stroke-width:0.000000; stroke-opacity:1; 
stroke-linecap:round; stroke-linejoin:round;">
<circle cx="170.802200" cy="95.040000" r="1.625000" /> 
</g>
<g style="fill:#000000; fill-opacity:1.000000; 
stroke:#000000; stroke-width:0.021200; stroke-opacity:1; 
stroke-linecap:round; stroke-linejoin:round;">
</g>
<g >
</g>
<g style="fill:#000000; fill-opacity:1.000000; 
stroke:#000000; stroke-width:0.021200; stroke-opacity:1; 
stroke-linecap:round; stroke-linejoin:round;">
</g>
<g style="fill:#000000; fill-opacity:1.000000; 
stroke:#000000; stroke-width:0.000000; stroke-opacity:1; 
stroke-linecap:round; stroke-linejoin:round;">
<circle cx="174.010890" cy="86.180000" r="1.000000" /> 
</g>
<g style="fill:#000000; fill-opacity:1.000000; 
stroke:#000000; stroke-width:0.021200; stroke-opacity:1; 
stroke-linecap:round; stroke-linejoin:round;">
</g>
<g style="fill:#000000; fill-opacity:1.000000; 
stroke:#000000; stroke-width:0.000000; stroke-opacity:1; 
stroke-linecap:round; stroke-linejoin:round;">
<circle cx="171.470890" cy="86.180000" r="1.000000" /> 
</g>
<g style="fill:#000000; fill-opacity:1.000000; 
stroke:#000000; stroke-width:0.021200; stroke-opacity:1; 
stroke-linecap:round; stroke-linejoin:round;">
</g>
<g >
</g>
<g style="fill:#000000; fill-opacity:1.000000; 
stroke:#000000; stroke-width:0.021200; stroke-opacity:1; 
stroke-linecap:round; stroke-linejoin:round;">
</g>
<g style="fill:#000000; fill-opacity:1.000000; 
stroke:#000000; stroke-width:0.000000; stroke-opacity:1; 
stroke-linecap:round; stroke-linejoin:round;">
<circle cx="131.007200" cy="125.550000" r="1.000000" /> 
</g>
<g style="fill:#000000; fill-opacity:1.000000; 
stroke:#000000; stroke-width:0.021200; stroke-opacity:1; 
stroke-linecap:round; stroke-linejoin:round;">
</g>
<g style="fill:#000000; fill-opacity:1.000000; 
stroke:#000000; stroke-width:0.000000; stroke-opacity:1; 
stroke-linecap:round; stroke-linejoin:round;">
<circle cx="128.467200" cy="128.090000" r="1.000000" /> 
</g>
<g style="fill:#000000; fill-opacity:1.000000; 
stroke:#000000; stroke-width:0.021200; stroke-opacity:1; 
stroke-linecap:round; stroke-linejoin:round;">
</g>
<g style="fill:#000000; fill-opacity:1.000000; 
stroke:#000000; stroke-width:0.000000; stroke-opacity:1; 
stroke-linecap:round; stroke-linejoin:round;">
<circle cx="125.927200" cy="125.550000" r="1.000000" /> 
</g>
<g style="fill:#000000; fill-opacity:1.000000; 
stroke:#000000; stroke-width:0.021200; stroke-opacity:1; 
stroke-linecap:round; stroke-linejoin:round;">
</g>
<g >
</g>
<g style="fill:#000000; fill-opacity:1.000000; 
stroke:#000000; stroke-width:0.021200; stroke-opacity:1; 
stroke-linecap:round; stroke-linejoin:round;">
</g>
<g style="fill:#000000; fill-opacity:1.000000; 
stroke:#000000; stroke-width:0.000000; stroke-opacity:1; 
stroke-linecap:round; stroke-linejoin:round;">
<circle cx="158.269700" cy="76.745000" r="1.000000" /> 
</g>
<g style="fill:#000000; fill-opacity:1.000000; 
stroke:#000000; stroke-width:0.021200; stroke-opacity:1; 
stroke-linecap:round; stroke-linejoin:round;">
</g>
<g style="fill:#000000; fill-opacity:1.000000; 
stroke:#000000; stroke-width:0.000000; stroke-opacity:1; 
stroke-linecap:round; stroke-linejoin:round;">
<circle cx="150.669700" cy="76.745000" r="1.000000" /> 
</g>
<g style="fill:#000000; fill-opacity:1.000000; 
stroke:#000000; stroke-width:0.021200; stroke-opacity:1; 
stroke-linecap:round; stroke-linejoin:round;">
</g>
<g >
</g>
<g style="fill:#000000; fill-opacity:1.000000; 
stroke:#000000; stroke-width:0.021200; stroke-opacity:1; 
stroke-linecap:round; stroke-linejoin:round;">
</g>
<g style="fill:#000000; fill-opacity:1.000000; 
stroke:#000000; stroke-width:0.000000; stroke-opacity:1; 
stroke-linecap:round; stroke-linejoin:round;">
<circle cx="174.010890" cy="79.090000" r="1.000000" /> 
</g>
<g style="fill:#000000; fill-opacity:1.000000; 
stroke:#000000; stroke-width:0.021200; stroke-opacity:1; 
stroke-linecap:round; stroke-linejoin:round;">
</g>
<g style="fill:#000000; fill-opacity:1.000000; 
stroke:#000000; stroke-width:0.000000; stroke-opacity:1; 
stroke-linecap:round; stroke-linejoin:round;">
<circle cx="171.470890" cy="79.090000" r="1.000000" /> 
</g>
<g style="fill:#000000; fill-opacity:1.000000; 
stroke:#000000; stroke-width:0.021200; stroke-opacity:1; 
stroke-linecap:round; stroke-linejoin:round;">
</g>
<g >
</g>
<g >
</g>
<g >
</g>
<g >
</g>
<g >
</g>
<g >
</g>
<g >
</g>
<g >
</g>
<g >
</g>
<g >
</g>
<g >
</g>
<g >
</g>
<g >
</g>
<g >
</g>
<g >
</g>
<g >
</g>
<g >
</g>
<g style="fill:#000000; fill-opacity:1.000000; 
stroke:#000000; stroke-width:0.021200; stroke-opacity:1; 
stroke-linecap:round; stroke-linejoin:round;">
</g>
<g style="fill:#000000; fill-opacity:1.000000; 
stroke:#000000; stroke-width:0.000000; stroke-opacity:1; 
stroke-linecap:round; stroke-linejoin:round;">
<path style="fill:#000000; fill-opacity:1.000000; 
stroke:#000000; stroke-width:0.000000; stroke-opacity:1; 
stroke-linecap:round; stroke-linejoin:round;fill-rule:evenodd;"
d="M 148.630200,117.370180
148.630200,119.569820
150.154200,119.569820
150.154200,117.370180
Z" /> 
<path style="fill:#000000; fill-opacity:1.000000; 
stroke:#000000; stroke-width:0.000000; stroke-opacity:1; 
stroke-linecap:round; stroke-linejoin:round;fill-rule:evenodd;"
d="M 151.170200,117.370180
151.170200,119.569820
152.694200,119.569820
152.694200,117.370180
Z" /> 
<path style="fill:#000000; fill-opacity:1.000000; 
stroke:#000000; stroke-width:0.000000; stroke-opacity:1; 
stroke-linecap:round; stroke-linejoin:round;fill-rule:evenodd;"
d="M 153.710200,117.370180
153.710200,119.569820
155.234200,119.569820
155.234200,117.370180
Z" /> 
</g>
<g >
</g>
<g >
</g>
<g >
</g>
<g >
</g>
<g >
</g>
<g >
</g>
<g >
</g>
<g >
</g>
<g >
</g>
<g >
</g>
<g style="fill:#000000; fill-opacity:1.000000; 
stroke:#000000; stroke-width:0.000000; stroke-opacity:1; 
stroke-linecap:round; stroke-linejoin:round;">
<path style="fill:#000000; fill-opacity:1.000000; 
stroke:#000000; stroke-width:0.000000; stroke-opacity:1; 
stroke-linecap:round; stroke-linejoin:round;fill-rule:evenodd;"
d="M 140.712200,105.640000
140.712200,107.640000
142.712200,107.640000
142.712200,105.640000
Z" /> 
<circle cx="141.712200" cy="109.180000" r="1.000000" /> 
<circle cx="141.712200" cy="111.720000" r="1.000000" /> 
</g>
<g >
</g>
<g style="fill:#000000; fill-opacity:1.000000; 
stroke:#000000; stroke-width:0.000000; stroke-opacity:1; 
stroke-linecap:round; stroke-linejoin:round;">
<path style="fill:#000000; fill-opacity:1.000000; 
stroke:#000000; stroke-width:0.000000; stroke-opacity:1; 
stroke-linecap:round; stroke-linejoin:round;fill-rule:evenodd;"
d="M 174.809700,118.870000
174.881247,118.861699
174.986305,118.815312
175.067512,118.734105
175.113899,118.629047
175.122200,118.557500
175.122200,117.182500
175.113899,117.110953
175.067512,117.005895
174.986305,116.924688
174.881247,116.878301
174.809700,116.870000
173.434700,116.870000
173.363153,116.878301
173.258095,116.924688
173.176888,117.005895
173.130501,117.110953
173.122200,117.182500
173.122200,118.557500
173.130501,118.629047
173.176888,118.734105
173.258095,118.815312
173.363153,118.861699
173.434700,118.870000
Z" /> 
<circle cx="174.122200" cy="114.270000" r="1.000000" /> 
</g>
<g style="fill:#000000; fill-opacity:1.000000; 
stroke:#000000; stroke-width:0.021200; stroke-opacity:1; 
stroke-linecap:round; stroke-linejoin:round;">
</g>
<g >
</g>
<g >
</g>
<g >
</g>
<g >
</g>
<g >
</g>
<g style="fill:#000000; fill-opacity:1.000000; 
stroke:#000000; stroke-width:0.021200; stroke-opacity:1; 
stroke-linecap:round; stroke-linejoin:round;">
</g>
<g style="fill:#000000; fill-opacity:1.000000; 
stroke:#000000; stroke-width:0.000000; stroke-opacity:1; 
stroke-linecap:round; stroke-linejoin:round;">
<path style="fill:#000000; fill-opacity:1.000000; 
stroke:#000000; stroke-width:0.000000; stroke-opacity:1; 
stroke-linecap:round; stroke-linejoin:round;fill-rule:evenodd;"
d="M 162.172200,103.100000
162.172200,105.100000
164.172200,105.100000
164.172200,103.100000
Z" /> 
<circle cx="163.172200" cy="106.640000" r="1.000000" /> 
<circle cx="163.172200" cy="109.180000" r="1.000000" /> 
</g>
<g >
</g>
<g >
</g>
<g style="fill:#000000; fill-opacity:1.000000; 
stroke:#000000; stroke-width:0.000000; stroke-opacity:1; 
stroke-linecap:round; stroke-linejoin:round;">
<circle cx="148.012200" cy="129.160000" r="1.000000" /> 
</g>
<g style="fill:#000000; fill-opacity:1.000000; 
stroke:#000000; stroke-width:0.021200; stroke-opacity:1; 
stroke-linecap:round; stroke-linejoin:round;">
</g>
<g style="fill:#000000; fill-opacity:1.000000; 
stroke:#000000; stroke-width:0.000000; stroke-opacity:1; 
stroke-linecap:round; stroke-linejoin:round;">
<circle cx="144.522200" cy="74.980000" r="1.000000" /> 
</g>
<g style="fill:#000000; fill-opacity:1.000000; 
stroke:#000000; stroke-width:0.021200; stroke-opacity:1; 
stroke-linecap:round; stroke-linejoin:round;">
</g>
<g style="fill:#000000; fill-opacity:1.000000; 
stroke:#000000; stroke-width:0.000000; stroke-opacity:1; 
stroke-linecap:round; stroke-linejoin:round;">
<circle cx="124.592200" cy="118.750000" r="1.000000" /> 
</g>
<g style="fill:#000000; fill-opacity:1.000000; 
stroke:#000000; stroke-width:0.021200; stroke-opacity:1; 
stroke-linecap:round; stroke-linejoin:round;">
</g>
<g style="fill:#000000; fill-opacity:1.000000; 
stroke:#000000; stroke-width:0.000000; stroke-opacity:1; 
stroke-linecap:round; stroke-linejoin:round;">
<circle cx="163.360104" cy="127.306568" r="1.000000" /> 
</g>
<g style="fill:#000000; fill-opacity:1.000000; 
stroke:#000000; stroke-width:0.021200; stroke-opacity:1; 
stroke-linecap:round; stroke-linejoin:round;">
</g>
<g style="fill:#000000; fill-opacity:1.000000; 
stroke:#000000; stroke-width:0.000000; stroke-opacity:1; 
stroke-linecap:round; stroke-linejoin:round;">
<circle cx="137.602200" cy="109.900000" r="1.000000" /> 
</g>
<g style="fill:#000000; fill-opacity:1.000000; 
stroke:#000000; stroke-width:0.021200; stroke-opacity:1; 
stroke-linecap:round; stroke-linejoin:round;">
</g>
<g style="fill:#000000; fill-opacity:1.000000; 
stroke:#000000; stroke-width:0.000000; stroke-opacity:1; 
stroke-linecap:round; stroke-linejoin:round;">
<circle cx="159.482200" cy="109.180000" r="1.000000" /> 
</g>
<g style="fill:#000000; fill-opacity:1.000000; 
stroke:#000000; stroke-width:0.021200; stroke-opacity:1; 
stroke-linecap:round; stroke-linejoin:round;">
</g>
<g style="fill:#000000; fill-opacity:1.000000; 
stroke:#000000; stroke-width:0.000000; stroke-opacity:1; 
stroke-linecap:round; stroke-linejoin:round;">
<circle cx="137.327200" cy="125.820000" r="1.000000" /> 
</g>
<g style="fill:#000000; fill-opacity:1.000000; 
stroke:#000000; stroke-width:0.021200; stroke-opacity:1; 
stroke-linecap:round; stroke-linejoin:round;">
</g>
<g style="fill:#000000; fill-opacity:1.000000; 
stroke:#000000; stroke-width:0.000000; stroke-opacity:1; 
stroke-linecap:round; stroke-linejoin:round;">
<circle cx="139.112200" cy="81.480000" r="1.000000" /> 
</g>
<g style="fill:#000000; fill-opacity:1.000000; 
stroke:#000000; stroke-width:0.021200; stroke-opacity:1; 
stroke-linecap:round; stroke-linejoin:round;">
</g>
<g style="fill:#000000; fill-opacity:1.000000; 
stroke:#000000; stroke-width:0.000000; stroke-opacity:1; 
stroke-linecap:round; stroke-linejoin:round;">
<circle cx="125.862200" cy="80.460000" r="1.000000" /> 
</g>
<g style="fill:#000000; fill-opacity:1.000000; 
stroke:#000000; stroke-width:0.021200; stroke-opacity:1; 
stroke-linecap:round; stroke-linejoin:round;">
</g>
<g style="fill:#000000; fill-opacity:1.000000; 
stroke:#000000; stroke-width:0.000000; stroke-opacity:1; 
stroke-linecap:round; stroke-linejoin:round;">
<circle cx="142.102200" cy="80.930000" r="1.000000" /> 
</g>
<g style="fill:#000000; fill-opacity:1.000000; 
stroke:#000000; stroke-width:0.021200; stroke-opacity:1; 
stroke-linecap:round; stroke-linejoin:round;">
</g>
<g style="fill:#000000; fill-opacity:1.000000; 
stroke:#000000; stroke-width:0.000000; stroke-opacity:1; 
stroke-linecap:round; stroke-linejoin:round;">
<circle cx="128.342200" cy="79.340000" r="1.000000" /> 
</g>
<g style="fill:#000000; fill-opacity:1.000000; 
stroke:#000000; stroke-width:0.021200; stroke-opacity:1; 
stroke-linecap:round; stroke-linejoin:round;">
</g>
<g style="fill:#000000; fill-opacity:1.000000; 
stroke:#000000; stroke-width:0.000000; stroke-opacity:1; 
stroke-linecap:round; stroke-linejoin:round;">
<circle cx="156.192200" cy="100.840000" r="1.000000" /> 
</g>
<g style="fill:#000000; fill-opacity:1.000000; 
stroke:#000000; stroke-width:0.021200; stroke-opacity:1; 
stroke-linecap:round; stroke-linejoin:round;">
</g>
<g style="fill:#000000; fill-opacity:1.000000; 
stroke:#000000; stroke-width:0.000000; stroke-opacity:1; 
stroke-linecap:round; stroke-linejoin:round;">
<circle cx="122.922200" cy="80.460000" r="1.000000" /> 
</g>
<g style="fill:#000000; fill-opacity:1.000000; 
stroke:#000000; stroke-width:0.021200; stroke-opacity:1; 
stroke-linecap:round; stroke-linejoin:round;">
</g>
<g style="fill:#000000; fill-opacity:1.000000; 
stroke:#000000; stroke-width:0.000000; stroke-opacity:1; 
stroke-linecap:round; stroke-linejoin:round;">
<circle cx="134.442200" cy="104.470000" r="1.000000" /> 
</g>
<g style="fill:#000000; fill-opacity:1.000000; 
stroke:#000000; stroke-width:0.021200; stroke-opacity:1; 
stroke-linecap:round; stroke-linejoin:round;">
</g>
<g >
</g>
<g style="fill:#000000; fill-opacity:1.000000; 
stroke:#000000; stroke-width:0.021200; stroke-opacity:1; 
stroke-linecap:round; stroke-linejoin:round;">
</g>
<g style="fill:#000000; fill-opacity:1.000000; 
stroke:#000000; stroke-width:1.000000; stroke-opacity:1; 
stroke-linecap:round; stroke-linejoin:round;">
</g>
<g style="fill:#000000; fill-opacity:0.0; 
stroke:#000000; stroke-width:1.000000; stroke-opacity:1; 
stroke-linecap:round; stroke-linejoin:round;">
<path d="M149.548768 127.306568
L148.062200 125.820000
" />
<path d="M148.062200 125.820000
L137.327200 125.820000
" />
<path d="M174.122200 124.390000
L174.122200 117.870000
" />
<path d="M137.602200 113.920000
L137.602200 109.900000
" />
<path d="M154.202200 114.460000
L159.482200 109.180000
" />
<path d="M176.182200 118.360000
L176.182200 119.240000
" />
<path d="M137.602200 112.620000
L139.442200 114.460000
" />
<path d="M175.692200 117.870000
L176.182200 118.360000
" />
<path d="M132.772200 118.750000
L137.602200 113.920000
" />
<path d="M144.522200 74.980000
L144.522200 77.720000
" />
<path d="M163.360104 127.306568
L171.205632 127.306568
" />
<path d="M163.360104 127.306568
L149.548768 127.306568
" />
<path d="M174.122200 117.870000
L175.692200 117.870000
" />
<path d="M147.532200 80.730000
L154.152200 80.730000
" />
<path d="M159.482200 86.060000
L159.482200 109.180000
" />
<path d="M139.442200 114.460000
L154.202200 114.460000
" />
<path d="M144.522200 77.720000
L147.532200 80.730000
" />
<path d="M137.602200 109.900000
L137.602200 112.620000
" />
<path d="M171.205632 127.306568
L174.122200 124.390000
" />
<path d="M154.152200 80.730000
L159.482200 86.060000
" />
<path d="M124.592200 118.750000
L132.772200 118.750000
" />
<path d="M126.882200 81.480000
L139.112200 81.480000
" />
<path d="M125.862200 80.460000
L126.882200 81.480000
" />
<path d="M142.102200 79.960000
L142.102200 80.930000
" />
<path d="M141.482200 79.340000
L142.102200 79.960000
" />
<path d="M128.342200 79.340000
L141.482200 79.340000
" />
<path d="M127.562200 104.470000
L122.922200 99.830000
" />
<path d="M134.442200 104.470000
L127.562200 104.470000
" />
<path d="M154.332200 104.470000
L134.442200 104.470000
" />
<path d="M156.192200 102.610000
L154.332200 104.470000
" />
<path d="M156.192200 100.840000
L156.192200 102.610000
" />
<path d="M122.922200 99.830000
L122.922200 80.460000
" />
</g>
<g >
</g>
<g style="fill:#000000; fill-opacity:0.0; 
stroke:#000000; stroke-width:1.000000; stroke-opacity:1; 
stroke-linecap:round; stroke-linejoin:round;">
<g >
</g>
<g style="fill:#000000; fill-opacity:1.000000; 
stroke:#000000; stroke-width:0.000000; stroke-opacity:1; 
stroke-linecap:round; stroke-linejoin:round;">
<path style="fill:#000000; fill-opacity:1.000000; 
stroke:#000000; stroke-width:0.000000; stroke-opacity:1; 
stroke-linecap:round; stroke-linejoin:round;fill-rule:evenodd;"
d="M 170.965853,111.169372
170.854964,111.225606
170.766768,111.313242
170.709829,111.423770
170.689675,111.546459
170.664758,115.458459
170.677803,115.562222
170.717362,115.659031
170.780717,115.742236
170.863517,115.806120
170.960072,115.846295
171.063750,115.860000
176.282700,115.860000
176.385969,115.846404
176.482200,115.806544
176.564836,115.743136
176.628244,115.660500
176.668104,115.564269
176.681700,115.461000
176.681700,111.549000
176.668104,111.445731
176.628244,111.349500
176.564836,111.266864
176.482200,111.203456
176.385969,111.163596
176.282700,111.150000
171.088667,111.150000
Z" /> 
</g>
</g>
<g style="fill:#000000; fill-opacity:1.000000; 
stroke:#000000; stroke-width:0.000000; stroke-opacity:1; 
stroke-linecap:round; stroke-linejoin:round;">
<g >
<path style="fill:#000000; fill-opacity:1.000000; 
stroke:#000000; stroke-width:0.000000; stroke-opacity:1; 
stroke-linecap:round; stroke-linejoin:round;fill-rule:evenodd;"
d="M 119.978431,70.444096
119.882200,70.483956
119.799564,70.547364
119.736156,70.630000
119.696296,70.726231
119.682700,70.829500
119.682700,130.030500
119.696296,130.133769
119.736156,130.230000
119.799564,130.312636
119.882200,130.376044
119.978431,130.415904
120.081700,130.429500
127.055418,130.429500
127.178038,130.410191
127.288791,130.354133
127.376955,130.266751
127.434000,130.156504
127.454402,130.034061
127.436188,129.911273
127.381121,129.800025
127.294529,129.711084
127.229322,129.662269
127.153805,129.605739
126.951461,129.403395
126.779974,129.174315
126.642833,128.923161
126.542831,128.655046
126.482004,128.375428
126.461590,128.090000
126.469905,127.973739
126.461804,127.860465
126.422116,127.754058
126.354058,127.663142
126.263142,127.595084
126.156735,127.555396
126.043459,127.547295
125.927200,127.555610
125.641772,127.535196
125.362154,127.474369
125.094039,127.374367
124.842885,127.237226
124.613805,127.065739
124.411461,126.863395
124.239974,126.634315
124.102833,126.383161
124.002831,126.115046
123.942004,125.835428
123.921590,125.550000
123.942004,125.264572
124.002831,124.984954
124.102833,124.716839
124.239974,124.465685
124.411461,124.236605
124.613805,124.034261
124.625209,124.025724
124.831483,123.871309
124.831487,123.871306
124.842885,123.862774
124.855381,123.855951
124.855385,123.855948
124.981140,123.787281
125.094039,123.725633
125.107382,123.720656
125.107387,123.720654
125.348804,123.630610
125.348808,123.630608
125.362154,123.625631
125.641772,123.564804
125.655987,123.563787
125.655996,123.563786
125.912980,123.545407
125.927200,123.544390
125.941420,123.545407
126.198405,123.563786
126.198416,123.563787
126.212628,123.564804
126.492246,123.625631
126.505589,123.630607
126.505597,123.630610
126.747014,123.720654
126.747024,123.720658
126.760361,123.725633
126.772862,123.732459
126.772864,123.732460
126.999016,123.855948
126.999027,123.855954
127.011515,123.862774
127.022907,123.871301
127.022918,123.871309
127.229192,124.025724
127.229200,124.025730
127.240595,124.034261
127.250659,124.044324
127.250666,124.044331
127.432869,124.226534
127.432876,124.226541
127.442939,124.236605
127.451470,124.248000
127.451476,124.248008
127.605891,124.454282
127.605899,124.454293
127.614426,124.465685
127.621246,124.478173
127.621252,124.478184
127.744740,124.704336
127.751567,124.716839
127.756542,124.730176
127.756546,124.730186
127.846590,124.971603
127.846593,124.971611
127.851569,124.984954
127.912396,125.264572
127.913413,125.278784
127.913414,125.278795
127.931793,125.535780
127.932810,125.550000
127.924495,125.666256
127.924495,125.666260
127.932598,125.779536
127.972286,125.885942
128.040343,125.976857
128.131258,126.044914
128.237664,126.084602
128.350940,126.092705
128.467200,126.084390
128.574830,126.092087
128.583461,126.092705
128.696738,126.084602
128.803144,126.044914
128.894059,125.976855
128.962117,125.885940
129.001804,125.779534
129.009905,125.666256
129.002607,125.564218
129.001590,125.550000
129.022004,125.264572
129.082831,124.984954
129.182833,124.716839
129.319974,124.465685
129.491461,124.236605
129.693805,124.034261
129.705209,124.025724
129.911483,123.871309
129.911487,123.871306
129.922885,123.862774
129.935381,123.855951
129.935385,123.855948
130.061140,123.787281
130.174039,123.725633
130.187382,123.720656
130.187387,123.720654
130.428804,123.630610
130.428808,123.630608
130.442154,123.625631
130.721772,123.564804
130.735987,123.563787
130.735996,123.563786
130.992980,123.545407
131.007200,123.544390
131.021420,123.545407
131.278405,123.563786
131.278416,123.563787
131.292628,123.564804
131.572246,123.625631
131.585589,123.630607
131.585597,123.630610
131.827014,123.720654
131.827024,123.720658
131.840361,123.725633
131.852862,123.732459
131.852864,123.732460
132.079016,123.855948
132.079027,123.855954
132.091515,123.862774
132.102907,123.871301
132.102918,123.871309
132.309192,124.025724
132.309200,124.025730
132.320595,124.034261
132.330659,124.044324
132.330666,124.044331
132.512869,124.226534
132.512876,124.226541
132.522939,124.236605
132.531470,124.248000
132.531476,124.248008
132.685891,124.454282
132.685899,124.454293
132.694426,124.465685
132.701246,124.478173
132.701252,124.478184
132.824740,124.704336
132.831567,124.716839
132.836542,124.730176
132.836546,124.730186
132.926590,124.971603
132.926593,124.971611
132.931569,124.984954
132.992396,125.264572
132.993413,125.278784
132.993414,125.278795
133.011793,125.535780
133.012810,125.550000
133.011793,125.564218
133.011793,125.564220
132.993414,125.821204
132.993413,125.821213
132.992396,125.835428
132.931569,126.115046
132.831567,126.383161
132.694426,126.634315
132.522939,126.863395
132.320595,127.065739
132.091515,127.237226
131.840361,127.374367
131.572246,127.474369
131.292628,127.535196
131.007200,127.555610
130.890942,127.547295
130.777666,127.555396
130.671260,127.595083
130.580345,127.663141
130.512286,127.754056
130.472598,127.860462
130.464495,127.973739
130.472810,128.090000
130.471793,128.104220
130.453414,128.361204
130.453413,128.361213
130.452396,128.375428
130.391569,128.655046
130.291567,128.923161
130.154426,129.174315
129.982939,129.403395
129.780595,129.605739
129.769189,129.614277
129.769186,129.614280
129.639871,129.711084
129.553279,129.800025
129.498212,129.911273
129.479998,130.034061
129.500400,130.156504
129.557445,130.266751
129.645609,130.354133
129.756362,130.410191
129.878982,130.429500
176.282700,130.429500
176.385969,130.415904
176.482200,130.376044
176.564836,130.312636
176.628244,130.230000
176.668104,130.133769
176.681700,130.030500
176.681700,118.896984
176.664725,118.781842
176.615245,118.676497
176.537471,118.589912
176.438018,118.529455
176.325350,118.500270
176.209054,118.504840
176.099023,118.542775
176.004621,118.610849
175.933880,118.703269
175.892818,118.812172
175.878235,118.879210
175.866712,118.915256
175.798042,119.075614
175.779907,119.108828
175.682127,119.253298
175.658035,119.282477
175.534678,119.405834
175.505499,119.429926
175.361029,119.527706
175.327815,119.545841
175.167457,119.614511
175.131411,119.626034
174.957466,119.663873
174.926962,119.668074
174.900576,119.669646
174.888685,119.670000
174.548350,119.670000
174.525243,119.666957
174.522200,119.643850
174.522200,119.643849
173.722200,119.643849
173.719158,119.666956
173.696050,119.669999
173.355688,119.669999
173.343844,119.669646
173.317445,119.668074
173.286932,119.663872
173.112990,119.626034
173.091102,119.619037
156.234700,119.619037
156.234699,119.627856
156.233918,119.636647
156.233917,119.636657
156.226579,119.719200
156.224086,119.747238
156.168109,119.942869
156.073898,120.123227
155.945309,120.280929
155.787607,120.409518
155.607249,120.503729
155.411618,120.559706
155.292237,120.570320
153.652164,120.570319
153.532782,120.559706
153.337151,120.503729
153.335750,120.502996
153.252612,120.481470
153.151788,120.481470
153.068651,120.502996
153.067249,120.503729
152.871618,120.559706
152.752237,120.570320
151.112164,120.570319
150.992782,120.559706
150.797151,120.503729
150.795750,120.502996
150.712612,120.481470
150.611788,120.481470
150.528651,120.502996
150.527249,120.503729
150.331618,120.559706
150.212237,120.570320
148.572164,120.570319
148.452782,120.559706
148.257151,120.503729
148.076793,120.409518
147.919091,120.280929
147.790502,120.123227
147.696291,119.942869
147.640314,119.747238
147.629700,119.627857
147.629701,117.312144
147.640314,117.192762
147.696291,116.997131
147.790502,116.816773
147.919091,116.659071
148.076793,116.530482
148.094729,116.521113
148.094732,116.521111
148.239218,116.445638
148.239222,116.445636
148.257151,116.436271
148.276604,116.430704
148.276606,116.430704
148.434542,116.385513
148.434544,116.385512
148.452782,116.380294
148.471674,116.378614
148.471681,116.378613
148.563341,116.370464
148.563349,116.370463
148.572163,116.369680
148.581018,116.369680
150.203396,116.369680
150.203419,116.369680
150.212236,116.369681
150.221027,116.370462
150.221038,116.370463
150.312732,116.378615
150.331618,116.380294
150.349849,116.385510
150.349852,116.385511
150.507795,116.430704
150.507800,116.430705
150.527249,116.436271
150.528653,116.437004
150.611792,116.458530
150.712608,116.458530
150.795748,116.437004
150.797151,116.436271
150.816604,116.430704
150.816606,116.430704
150.974542,116.385513
150.974544,116.385512
150.992782,116.380294
151.011674,116.378614
151.011681,116.378613
151.103341,116.370464
151.103349,116.370463
151.112163,116.369680
151.121018,116.369680
152.743396,116.369680
152.743419,116.369680
152.752236,116.369681
152.761027,116.370462
152.761038,116.370463
152.852732,116.378615
152.871618,116.380294
152.889849,116.385510
152.889852,116.385511
153.047795,116.430704
153.047800,116.430705
153.067249,116.436271
153.068653,116.437004
153.151792,116.458530
153.252608,116.458530
153.335748,116.437004
153.337151,116.436271
153.356604,116.430704
153.356606,116.430704
153.514542,116.385513
153.514544,116.385512
153.532782,116.380294
153.551674,116.378614
153.551681,116.378613
153.643341,116.370464
153.643349,116.370463
153.652163,116.369680
153.661018,116.369680
155.283396,116.369680
155.283419,116.369680
155.292236,116.369681
155.301027,116.370462
155.301038,116.370463
155.392732,116.378615
155.411618,116.380294
155.429849,116.385510
155.429852,116.385511
155.587795,116.430704
155.587800,116.430705
155.607249,116.436271
155.625176,116.445634
155.625183,116.445638
155.769669,116.521111
155.769677,116.521115
155.787607,116.530482
155.803292,116.543270
155.803293,116.543272
155.929622,116.646279
155.929628,116.646284
155.945309,116.659071
155.958096,116.674752
155.958101,116.674758
156.037496,116.772129
156.073898,116.816773
156.083265,116.834703
156.083269,116.834711
156.158742,116.979197
156.158746,116.979204
156.168109,116.997131
156.173675,117.016580
156.173676,117.016585
156.187529,117.065000
156.224086,117.192762
156.225765,117.211648
156.225767,117.211660
156.233916,117.303320
156.234700,117.312143
156.234700,117.320996
156.234700,117.320997
156.234700,119.619015
156.234700,119.619037
173.091102,119.619037
173.076944,119.614511
172.916586,119.545841
172.883372,119.527706
172.738902,119.429926
172.709723,119.405834
172.586366,119.282477
172.562274,119.253298
172.464494,119.108828
172.446359,119.075614
172.377689,118.915256
172.366166,118.879210
172.328327,118.705265
172.324126,118.674761
172.322554,118.648375
172.322200,118.636485
172.322200,118.296150
172.325243,118.273042
172.348350,118.270000
173.696050,118.270000
173.719158,118.273042
173.722200,118.296150
173.722200,119.643849
174.522200,119.643849
174.522200,117.869000
174.508604,117.765731
174.468744,117.669500
174.405336,117.586864
174.322700,117.523456
174.226469,117.483596
174.123200,117.470000
172.348351,117.470000
172.325244,117.466957
172.322201,117.443850
172.322201,117.264500
172.308605,117.161231
172.268745,117.065000
172.205337,116.982364
172.122701,116.918956
172.026470,116.879096
171.923201,116.865500
171.070314,116.865500
171.063750,116.865500
170.931981,116.856829
170.828303,116.843124
170.698799,116.817257
170.573802,116.774641
170.477247,116.734466
170.358920,116.675839
170.249296,116.602212
170.166496,116.538328
170.067460,116.450964
169.980728,116.351373
169.917373,116.268168
169.844446,116.158077
169.786574,116.039378
169.747015,115.942569
169.705197,115.817307
169.680156,115.687645
169.667111,115.583882
169.659278,115.452055
169.680477,112.123790
143.462441,112.123790
143.460540,112.149150
143.440378,112.237485
143.431599,112.265946
143.343943,112.489290
143.331029,112.516106
143.211067,112.723886
143.194290,112.748494
143.044699,112.936075
143.024455,112.957893
142.848571,113.121089
142.825293,113.139653
142.627060,113.274806
142.601275,113.289693
142.385110,113.393793
142.357387,113.404673
142.128153,113.475382
142.126040,113.475864
142.115742,113.475926
142.112200,113.451391
141.312200,113.451391
141.308659,113.475926
141.298361,113.475864
141.296248,113.475382
141.067013,113.404672
141.039290,113.393792
140.823132,113.289696
140.797337,113.274803
140.599108,113.139653
140.575830,113.121089
140.399946,112.957893
140.379702,112.936075
140.230111,112.748494
140.213334,112.723886
140.093372,112.516106
140.080458,112.489290
139.992802,112.265946
139.984023,112.237485
139.963861,112.149150
139.961960,112.123790
139.987110,112.120000
141.286050,112.120000
141.309158,112.123042
141.312200,112.146150
141.312200,113.451391
142.112200,113.451391
142.112200,112.146150
142.115243,112.123042
142.138350,112.120000
143.437290,112.120000
143.462441,112.123790
169.680477,112.123790
169.684195,111.540055
169.697473,111.383471
169.717627,111.260782
169.755138,111.108183
169.815966,110.963293
169.872905,110.852765
169.955566,110.719119
170.058040,110.599985
170.146236,110.512349
170.266021,110.410636
170.400190,110.328828
170.407146,110.325300
170.407154,110.325296
170.504106,110.276130
170.504110,110.276128
170.511079,110.272594
170.518303,110.269615
170.641914,110.218644
170.641918,110.218642
170.656354,110.212690
170.691013,110.204404
170.801582,110.177970
170.801591,110.177968
170.809188,110.176152
170.816896,110.174936
170.816912,110.174933
170.924291,110.157996
170.924299,110.157995
170.932002,110.156780
170.939775,110.156170
170.939781,110.156170
171.080888,110.145109
171.080908,110.145108
171.088667,110.144500
176.282700,110.144500
176.385969,110.130904
176.482200,110.091044
176.564836,110.027636
176.628244,109.945000
176.668104,109.848769
176.681700,109.745500
176.681700,109.583790
164.922441,109.583790
164.920540,109.609150
164.900378,109.697485
164.891599,109.725946
164.803943,109.949290
164.791029,109.976106
164.671067,110.183886
164.654290,110.208494
164.504699,110.396075
164.484455,110.417893
164.308571,110.581089
164.285293,110.599653
164.087060,110.734806
164.061275,110.749693
163.845110,110.853793
163.817387,110.864673
163.588153,110.935382
163.586040,110.935864
163.575742,110.935926
163.572200,110.911391
162.772200,110.911391
162.768659,110.935926
162.758361,110.935864
162.756248,110.935382
162.527013,110.864672
162.499290,110.853792
162.283132,110.749696
162.257337,110.734803
162.059108,110.599653
162.035830,110.581089
161.859946,110.417893
161.839702,110.396075
161.690111,110.208494
161.673334,110.183886
161.553372,109.976106
161.540458,109.949290
161.452802,109.725946
161.444023,109.697485
161.423861,109.609150
161.421960,109.583790
161.447110,109.580000
162.746050,109.580000
162.769158,109.583042
162.772200,109.606150
162.772200,110.911391
163.572200,110.911391
163.572200,109.606150
163.575243,109.583042
163.598350,109.580000
164.897290,109.580000
164.922441,109.583790
176.681700,109.583790
176.681700,106.640000
165.177810,106.640000
165.176793,106.654220
165.158414,106.911204
165.158413,106.911213
165.157396,106.925428
165.096569,107.205046
164.996567,107.473161
164.989740,107.485663
164.873776,107.698036
164.859426,107.724315
164.850891,107.735717
164.850886,107.735724
164.763537,107.852409
164.708287,107.954310
164.684659,108.067792
164.694647,108.183277
164.737407,108.291017
164.791030,108.383895
164.803943,108.410709
164.891599,108.634053
164.900378,108.662514
164.920540,108.750849
164.922441,108.776209
164.897290,108.780000
161.447110,108.780000
161.421960,108.776209
161.423861,108.750849
161.444023,108.662514
161.452802,108.634053
161.540458,108.410709
161.553372,108.383893
161.606992,108.291020
161.649754,108.183278
161.659742,108.067793
161.636114,107.954309
161.580865,107.852409
161.484974,107.724315
161.347833,107.473161
161.247831,107.205046
161.187004,106.925428
161.166590,106.640000
161.187004,106.354572
161.247831,106.074954
161.252811,106.061603
161.252813,106.061595
161.312701,105.901031
161.336660,105.792501
161.329753,105.681574
161.292518,105.576861
161.238291,105.473049
161.182314,105.277418
161.171700,105.158037
161.171701,103.041964
161.182314,102.922582
161.238291,102.726951
161.332502,102.546593
161.461091,102.388891
161.618793,102.260302
161.636729,102.250933
161.636732,102.250931
161.781218,102.175458
161.781222,102.175456
161.799151,102.166091
161.818604,102.160524
161.818606,102.160524
161.976542,102.115333
161.976544,102.115332
161.994782,102.110114
162.013674,102.108434
162.013681,102.108433
162.105341,102.100284
162.105349,102.100283
162.114163,102.099500
162.123018,102.099500
164.221396,102.099500
164.221419,102.099500
164.230236,102.099501
164.239027,102.100282
164.239038,102.100283
164.330732,102.108435
164.349618,102.110114
164.367849,102.115330
164.367852,102.115331
164.525795,102.160524
164.525800,102.160525
164.545249,102.166091
164.563176,102.175454
164.563183,102.175458
164.707669,102.250931
164.707677,102.250935
164.725607,102.260302
164.741292,102.273090
164.741293,102.273092
164.867622,102.376099
164.867628,102.376104
164.883309,102.388891
164.896096,102.404572
164.896101,102.404578
164.999108,102.530907
165.011898,102.546593
165.021265,102.564523
165.021269,102.564531
165.096742,102.709017
165.096746,102.709024
165.106109,102.726951
165.111675,102.746400
165.111676,102.746405
165.156867,102.904341
165.162086,102.922582
165.163765,102.941468
165.163767,102.941480
165.171055,103.023460
165.172700,103.041963
165.172700,103.050816
165.172700,103.050817
165.172700,105.149195
165.172700,105.149217
165.172699,105.158036
165.162086,105.277418
165.106109,105.473049
165.096744,105.490978
165.096742,105.490982
165.051884,105.576858
165.014648,105.681576
165.007741,105.792501
165.031699,105.901029
165.091588,106.061597
165.091592,106.061608
165.096569,106.074954
165.157396,106.354572
165.158413,106.368784
165.158414,106.368795
165.165980,106.474593
165.177810,106.640000
176.681700,106.640000
176.681700,100.840000
158.197810,100.840000
158.196793,100.854220
158.178414,101.111204
158.178413,101.111213
158.177396,101.125428
158.116569,101.405046
158.016567,101.673161
158.009740,101.685663
157.933966,101.824434
157.879426,101.924315
157.870894,101.935713
157.870891,101.935717
157.772284,102.067440
157.728757,102.140801
157.701818,102.221738
157.692700,102.306552
157.692700,102.492064
157.694118,102.514901
157.693834,102.514913
157.694517,102.531409
157.696557,102.547779
157.695876,102.564255
157.695876,102.564266
157.693041,102.632790
157.692700,102.649278
157.692700,102.672067
157.692023,102.680248
157.692021,102.680276
157.690818,102.694789
157.689797,102.711239
157.686281,102.796237
157.682897,102.812378
157.681084,102.826922
157.678671,102.841386
157.677308,102.857821
157.673260,102.873809
157.673258,102.873817
157.656423,102.940297
157.652708,102.956355
157.635249,103.039614
157.629250,103.054989
157.625063,103.069053
157.620312,103.082893
157.616263,103.098881
157.609642,103.113976
157.609639,103.113984
157.582086,103.176799
157.575779,103.192028
157.550858,103.255895
157.550853,103.255905
157.544856,103.271274
157.536411,103.285447
157.529976,103.298609
157.523000,103.311500
157.516373,103.326607
157.507351,103.340417
157.507350,103.340418
157.469844,103.397826
157.461116,103.411809
157.417566,103.484894
157.406902,103.497485
157.398400,103.509393
157.389394,103.520963
157.380364,103.534785
157.344089,103.574190
157.322749,103.597372
157.311839,103.609726
157.297102,103.627126
157.291281,103.632947
157.291280,103.632948
157.280971,103.643257
157.269553,103.655158
157.223124,103.705594
157.223120,103.705597
157.211944,103.717738
157.198918,103.727876
157.186781,103.739049
157.186974,103.739258
157.169830,103.754398
155.476601,105.447627
155.461461,105.464772
155.461251,105.464580
155.450073,105.476722
155.439938,105.489744
155.427801,105.500917
155.427798,105.500920
155.377360,105.547351
155.365460,105.558768
155.349326,105.574902
155.331945,105.589623
155.331936,105.589630
155.319572,105.600548
155.311223,105.608234
155.269128,105.646986
155.269125,105.646988
155.256985,105.658164
155.243167,105.667192
155.231604,105.676191
155.219691,105.684697
155.207094,105.695366
155.192915,105.703815
155.192912,105.703817
155.134002,105.738920
155.120041,105.747634
155.048807,105.794173
155.033686,105.800805
155.020805,105.807776
155.007663,105.814201
154.993474,105.822656
154.915568,105.853055
154.914227,105.853578
154.898990,105.859889
154.821081,105.894063
154.805086,105.898113
154.791239,105.902867
154.777186,105.907051
154.761814,105.913049
154.745666,105.916435
154.745662,105.916436
154.678582,105.930501
154.662510,105.934219
154.662490,105.934224
154.580021,105.955108
154.563557,105.956471
154.549129,105.958879
154.534602,105.960690
154.518437,105.964080
154.433431,105.967595
154.417018,105.968614
154.394267,105.970500
154.371472,105.970500
154.354982,105.970841
154.269979,105.974357
154.253607,105.972316
154.237112,105.971634
154.237101,105.971917
154.214263,105.970500
144.111700,105.970500
143.988402,105.990028
143.877174,106.046702
143.788902,106.134974
143.732229,106.246202
143.712700,106.369500
143.712700,107.689195
143.712700,107.689217
143.712699,107.698036
143.702086,107.817418
143.696870,107.835649
143.696869,107.835651
143.662917,107.954310
143.646109,108.013049
143.636744,108.030978
143.636742,108.030982
143.591884,108.116858
143.554648,108.221576
143.547741,108.332501
143.571699,108.441029
143.631588,108.601597
143.631592,108.601608
143.636569,108.614954
143.639598,108.628877
143.639598,108.628878
143.672472,108.780000
143.697396,108.894572
143.698413,108.908784
143.698414,108.908795
143.716793,109.165780
143.717810,109.180000
143.716793,109.194220
143.698414,109.451204
143.698413,109.451213
143.697396,109.465428
143.636569,109.745046
143.631592,109.758392
143.631590,109.758396
143.597883,109.848769
143.536567,110.013161
143.529740,110.025663
143.415634,110.234634
143.399426,110.264315
143.390891,110.275717
143.390886,110.275724
143.303537,110.392409
143.248287,110.494310
143.224659,110.607792
143.234647,110.723277
143.277407,110.831017
143.331030,110.923895
143.343943,110.950709
143.431599,111.174053
143.440378,111.202514
143.460540,111.290849
143.462441,111.316209
143.437290,111.320000
139.987110,111.320000
139.961960,111.316209
139.963861,111.290849
139.984023,111.202514
139.992802,111.174053
140.080458,110.950709
140.093372,110.923893
140.146992,110.831020
140.189754,110.723278
140.199742,110.607793
140.176114,110.494309
140.120865,110.392409
140.024974,110.264315
139.887833,110.013161
139.787831,109.745046
139.727004,109.465428
139.706590,109.180000
139.727004,108.894572
139.787831,108.614954
139.792811,108.601603
139.792813,108.601595
139.852701,108.441031
139.876660,108.332501
139.869753,108.221574
139.832518,108.116861
139.778291,108.013049
139.722314,107.817418
139.711700,107.698037
139.711701,106.369498
139.698105,106.266231
139.658245,106.170000
139.594837,106.087365
139.512201,106.023956
139.415970,105.984096
139.312701,105.970500
135.908752,105.970500
135.823938,105.979618
135.743001,106.006557
135.669641,106.050083
135.526515,106.157226
135.275361,106.294367
135.007246,106.394369
134.727628,106.455196
134.442200,106.475610
134.156772,106.455196
133.877154,106.394369
133.609039,106.294367
133.357885,106.157226
133.214760,106.050083
133.141399,106.006557
133.060462,105.979618
132.975648,105.970500
127.680136,105.970500
127.657299,105.971917
127.657287,105.971634
127.640795,105.972316
127.624421,105.974357
127.539410,105.970840
127.522922,105.970500
127.508375,105.970500
127.500133,105.970500
127.491918,105.969819
127.491916,105.969819
127.477424,105.968618
127.460956,105.967595
127.375963,105.964081
127.359794,105.960690
127.345257,105.958878
127.330835,105.956471
127.314379,105.955108
127.231873,105.934214
127.215888,105.930515
127.132586,105.913049
127.117197,105.907043
127.103148,105.902861
127.089328,105.898116
127.073319,105.894063
126.995412,105.859889
126.980179,105.853580
126.978584,105.852957
126.900926,105.822656
126.886742,105.814203
126.873604,105.807781
126.860714,105.800805
126.845593,105.794173
126.774384,105.747649
126.760400,105.738920
126.687306,105.695366
126.674702,105.684690
126.662783,105.676180
126.651238,105.667194
126.637415,105.658164
126.574800,105.600520
126.562478,105.589640
126.545074,105.574902
126.528957,105.558783
126.517051,105.547360
126.517041,105.547351
126.454462,105.489744
126.444321,105.476713
126.433147,105.464576
126.432937,105.464769
126.417806,105.447632
121.944568,100.974394
121.927431,100.959263
121.927624,100.959053
121.915487,100.947879
121.902456,100.937738
121.844832,100.875140
121.833410,100.863237
121.817298,100.847126
121.802560,100.829722
121.791680,100.817400
121.734036,100.754785
121.725006,100.740962
121.716027,100.729426
121.707513,100.717501
121.696834,100.704894
121.653266,100.631774
121.644571,100.617846
121.598027,100.546607
121.591392,100.531480
121.584426,100.518608
121.578000,100.505463
121.569544,100.491273
121.538615,100.412003
121.532309,100.396782
121.504766,100.333992
121.498137,100.318881
121.494084,100.302873
121.489339,100.289052
121.485157,100.275003
121.479151,100.259614
121.461685,100.176312
121.457986,100.160327
121.437092,100.077821
121.435729,100.061365
121.433322,100.046943
121.431510,100.032406
121.428119,100.016237
121.424605,99.931244
121.423582,99.914776
121.422381,99.900284
121.422381,99.900282
121.421700,99.892067
121.421700,99.869278
121.421359,99.852790
121.418525,99.784266
121.417843,99.767779
121.419884,99.751405
121.420566,99.734913
121.420283,99.734901
121.421700,99.712064
121.421700,81.926552
121.412582,81.841738
121.385643,81.760801
121.342116,81.687440
121.234974,81.544315
121.097833,81.293161
120.997831,81.025046
120.937004,80.745428
120.916590,80.460000
120.937004,80.174572
120.997831,79.894954
121.097833,79.626839
121.234974,79.375685
121.258588,79.344141
121.334006,79.243393
121.406461,79.146605
121.608805,78.944261
121.624128,78.932790
121.826483,78.781309
121.826487,78.781306
121.837885,78.772774
121.850381,78.765951
121.850385,78.765948
122.021711,78.672397
122.089039,78.635633
122.102382,78.630656
122.102387,78.630654
122.343804,78.540610
122.343808,78.540608
122.357154,78.535631
122.636772,78.474804
122.650987,78.473787
122.650996,78.473786
122.907980,78.455407
122.922200,78.454390
122.936420,78.455407
123.193405,78.473786
123.193416,78.473787
123.207628,78.474804
123.221557,78.477833
123.221557,78.477834
123.473322,78.532602
123.487246,78.535631
123.500589,78.540607
123.500597,78.540610
123.742014,78.630654
123.742024,78.630658
123.755361,78.635633
123.767862,78.642459
123.767864,78.642460
123.994016,78.765948
123.994027,78.765954
124.006515,78.772774
124.017907,78.781301
124.017918,78.781309
124.153088,78.882497
124.242145,78.932790
124.341062,78.958790
124.443338,78.958790
124.542255,78.932790
124.631312,78.882497
124.766483,78.781309
124.766487,78.781306
124.777885,78.772774
124.790381,78.765951
124.790385,78.765948
124.961711,78.672397
125.029039,78.635633
125.042382,78.630656
125.042387,78.630654
125.283804,78.540610
125.283808,78.540608
125.297154,78.535631
125.576772,78.474804
125.590987,78.473787
125.590996,78.473786
125.847980,78.455407
125.862200,78.454390
125.876420,78.455407
126.133405,78.473786
126.133416,78.473787
126.147628,78.474804
126.161557,78.477833
126.161571,78.477836
126.202306,78.486697
126.304206,78.495449
126.404984,78.478008
126.498017,78.435520
126.577193,78.370778
126.637309,78.288035
126.647056,78.270186
126.654974,78.255685
126.689578,78.209460
126.766887,78.106187
126.826461,78.026605
127.028805,77.824261
127.040209,77.815724
127.246483,77.661309
127.246487,77.661306
127.257885,77.652774
127.270381,77.645951
127.270385,77.645948
127.448284,77.548808
127.509039,77.515633
127.522382,77.510656
127.522387,77.510654
127.763804,77.420610
127.763808,77.420608
127.777154,77.415631
128.056772,77.354804
128.070987,77.353787
128.070996,77.353786
128.327980,77.335407
128.342200,77.334390
128.356420,77.335407
128.613405,77.353786
128.613416,77.353787
128.627628,77.354804
128.641557,77.357833
128.641557,77.357834
128.893322,77.412602
128.907246,77.415631
128.920589,77.420607
128.920597,77.420610
129.162014,77.510654
129.162024,77.510658
129.175361,77.515633
129.187862,77.522459
129.187864,77.522460
129.414016,77.645948
129.414027,77.645954
129.426515,77.652774
129.437907,77.661301
129.437918,77.661309
129.569640,77.759916
129.643001,77.803443
129.723938,77.830382
129.808752,77.839500
141.364263,77.839500
141.387101,77.838082
141.387112,77.838366
141.403611,77.837683
141.419979,77.835643
141.436455,77.836324
141.436466,77.836324
141.504982,77.839159
141.521472,77.839500
141.544267,77.839500
141.552470,77.840179
141.552482,77.840180
141.567006,77.841383
141.583438,77.842403
141.651945,77.845237
141.651954,77.845238
141.668437,77.845920
141.684584,77.849305
141.699148,77.851121
141.713586,77.853530
141.730021,77.854892
141.746009,77.858940
141.746024,77.858943
141.812521,77.875782
141.828577,77.879497
141.895663,77.893564
141.895667,77.893565
141.911814,77.896951
141.927189,77.902949
141.941263,77.907140
141.955095,77.911888
141.971081,77.915937
141.986180,77.922559
141.986195,77.922565
142.049009,77.950117
142.064233,77.956423
142.128102,77.981345
142.128120,77.981353
142.143474,77.987345
142.157633,77.995780
142.170805,78.002220
142.183711,78.009204
142.198807,78.015827
142.212609,78.024843
142.212620,78.024850
142.270020,78.062351
142.283997,78.071076
142.342919,78.106187
142.342923,78.106189
142.357094,78.114634
142.369679,78.125292
142.381602,78.133805
142.393179,78.142815
142.406985,78.151836
142.419117,78.163003
142.419122,78.163008
142.469583,78.209460
142.481925,78.220359
142.493029,78.229764
142.493050,78.229782
142.499326,78.235099
142.505138,78.240909
142.505159,78.240930
142.515452,78.251223
142.527329,78.262619
142.577802,78.309083
142.577808,78.309088
142.589938,78.320256
142.600071,78.333273
142.611248,78.345416
142.611457,78.345224
142.626601,78.362372
143.079828,78.815599
143.096977,78.830744
143.096784,78.830953
143.108925,78.842128
143.121944,78.852262
143.133110,78.864390
143.133126,78.864406
143.179579,78.914868
143.190986,78.926757
143.201264,78.937034
143.201285,78.937055
143.207102,78.942874
143.212425,78.949158
143.212441,78.949176
143.221856,78.960292
143.232754,78.972631
143.279187,79.023071
143.279200,79.023086
143.290364,79.035215
143.299382,79.049016
143.308387,79.060587
143.316907,79.072520
143.327566,79.085106
143.336012,79.099279
143.336015,79.099284
143.371122,79.158200
143.379848,79.172178
143.417349,79.229579
143.417354,79.229586
143.426373,79.243393
143.432995,79.258488
143.439976,79.271388
143.446416,79.284560
143.454856,79.298726
143.460852,79.314089
143.460859,79.314106
143.485787,79.377990
143.492092,79.393213
143.519636,79.456009
143.519639,79.456016
143.526263,79.471119
143.526763,79.473093
143.561031,79.545109
143.600133,79.594368
143.598530,79.595757
143.607871,79.606536
143.617939,79.616605
143.626470,79.628000
143.626476,79.628008
143.780891,79.834282
143.780899,79.834293
143.789426,79.845685
143.796246,79.858173
143.796252,79.858184
143.886041,80.022621
143.926567,80.096839
143.931542,80.110176
143.931546,80.110186
144.021590,80.351603
144.021593,80.351611
144.026569,80.364954
144.087396,80.644572
144.088413,80.658784
144.088414,80.658795
144.104790,80.887774
144.107810,80.930000
144.106793,80.944220
144.088414,81.201204
144.088413,81.201213
144.087396,81.215428
144.026569,81.495046
143.926567,81.763161
143.879349,81.849634
143.810491,81.975739
143.789426,82.014315
143.617939,82.243395
143.415595,82.445739
143.343453,82.499744
143.202893,82.604966
143.186515,82.617226
142.935361,82.754367
142.667246,82.854369
142.387628,82.915196
142.102200,82.935610
141.816772,82.915196
141.537154,82.854369
141.269039,82.754367
141.138093,82.682864
141.037250,82.644430
140.929789,82.634426
140.823578,82.653588
140.726389,82.700515
140.645331,82.771772
140.636474,82.781994
140.627939,82.793395
140.425595,82.995739
140.196515,83.167226
139.945361,83.304367
139.677246,83.404369
139.397628,83.465196
139.112200,83.485610
138.826772,83.465196
138.547154,83.404369
138.279039,83.304367
138.027885,83.167226
137.884760,83.060083
137.811399,83.016557
137.730462,82.989618
137.645648,82.980500
127.000136,82.980500
126.977299,82.981917
126.977287,82.981634
126.960795,82.982316
126.944421,82.984357
126.859410,82.980840
126.842922,82.980500
126.828375,82.980500
126.820133,82.980500
126.811918,82.979819
126.811916,82.979819
126.797424,82.978618
126.780956,82.977595
126.695963,82.974081
126.679794,82.970690
126.665257,82.968878
126.650835,82.966471
126.634379,82.965108
126.551873,82.944214
126.535888,82.940515
126.452586,82.923049
126.437197,82.917043
126.423148,82.912861
126.409328,82.908116
126.393319,82.904063
126.315412,82.869889
126.300179,82.863580
126.298584,82.862957
126.220926,82.832656
126.206742,82.824203
126.193604,82.817781
126.180714,82.810805
126.165593,82.804173
126.094384,82.757649
126.080415,82.748928
126.007306,82.705366
125.994702,82.694690
125.982783,82.686180
125.971238,82.677194
125.957415,82.668164
125.894800,82.610520
125.882478,82.599640
125.865074,82.584902
125.848957,82.568783
125.837057,82.557366
125.829502,82.550411
125.757461,82.497669
125.675495,82.462267
125.604952,82.449176
125.605086,82.448239
125.590996,82.446213
125.576772,82.445196
125.297154,82.384369
125.029039,82.284367
125.012921,82.275565
125.009311,82.274239
125.003569,82.271618
125.003369,82.272058
124.902531,82.235033
124.785122,82.228440
124.670890,82.256359
124.569758,82.316363
124.490510,82.403243
124.440029,82.509450
124.422700,82.625760
124.422700,99.043200
124.436296,99.146469
124.476156,99.242700
124.539564,99.325336
128.066864,102.852636
128.149500,102.916044
128.245731,102.955904
128.349000,102.969500
132.975648,102.969500
133.060462,102.960382
133.141399,102.933443
133.214760,102.889916
133.346483,102.791309
133.346487,102.791306
133.357885,102.782774
133.370381,102.775951
133.370385,102.775948
133.519017,102.694789
133.609039,102.645633
133.622382,102.640656
133.622387,102.640654
133.863804,102.550610
133.863808,102.550608
133.877154,102.545631
134.156772,102.484804
134.170987,102.483787
134.170996,102.483786
134.427980,102.465407
134.442200,102.464390
134.456420,102.465407
134.713405,102.483786
134.713416,102.483787
134.727628,102.484804
135.007246,102.545631
135.020589,102.550607
135.020597,102.550610
135.262014,102.640654
135.262024,102.640658
135.275361,102.645633
135.287862,102.652459
135.287864,102.652460
135.514016,102.775948
135.514027,102.775954
135.526515,102.782774
135.537907,102.791301
135.537918,102.791309
135.669640,102.889916
135.743001,102.933443
135.823938,102.960382
135.908752,102.969500
153.545400,102.969500
153.648669,102.955904
153.744900,102.916044
153.827536,102.852636
154.382379,102.297793
154.444834,102.216799
154.484647,102.122589
154.499202,102.021353
154.487543,101.919742
154.450435,101.824434
154.374665,101.685672
154.367833,101.673161
154.267831,101.405046
154.207004,101.125428
154.186590,100.840000
154.207004,100.554572
154.267831,100.274954
154.367833,100.006839
154.504974,99.755685
154.676461,99.526605
154.878805,99.324261
155.033481,99.208472
155.096483,99.161309
155.096487,99.161306
155.107885,99.152774
155.120381,99.145951
155.120385,99.145948
155.308554,99.043200
155.359039,99.015633
155.372382,99.010656
155.372387,99.010654
155.613804,98.920610
155.613808,98.920608
155.627154,98.915631
155.906772,98.854804
155.920987,98.853787
155.920996,98.853786
156.177980,98.835407
156.192200,98.834390
156.206420,98.835407
156.463405,98.853786
156.463416,98.853787
156.477628,98.854804
156.757246,98.915631
156.770589,98.920607
156.770597,98.920610
157.012014,99.010654
157.012024,99.010658
157.025361,99.015633
157.037862,99.022459
157.037864,99.022460
157.264016,99.145948
157.264027,99.145954
157.276515,99.152774
157.287907,99.161301
157.287918,99.161309
157.494192,99.315724
157.494200,99.315730
157.505595,99.324261
157.515659,99.334324
157.515666,99.334331
157.697869,99.516534
157.697876,99.516541
157.707939,99.526605
157.716470,99.538000
157.716476,99.538008
157.870891,99.744282
157.870899,99.744293
157.879426,99.755685
157.886246,99.768173
157.886252,99.768184
157.966297,99.914776
158.016567,100.006839
158.021542,100.020176
158.021546,100.020186
158.111590,100.261603
158.111593,100.261611
158.116569,100.274954
158.177396,100.554572
158.178413,100.568784
158.178414,100.568795
158.192583,100.766918
158.197810,100.840000
176.681700,100.840000
176.681700,95.040000
173.432499,95.040000
173.431771,95.052037
173.431771,95.052040
173.431244,95.060759
173.430706,95.097102
173.431063,95.108703
173.431063,95.108717
173.431441,95.121006
173.430308,95.133239
173.430307,95.133253
173.420965,95.234068
173.419991,95.246788
173.414050,95.345011
173.414049,95.345019
173.413321,95.357048
173.408925,95.381041
173.404095,95.416120
173.402693,95.431255
173.402692,95.431264
173.401558,95.443495
173.378035,95.550907
173.375336,95.564336
173.358244,95.657599
173.358240,95.657616
173.356067,95.669472
173.352484,95.680973
173.352480,95.680986
173.347748,95.696170
173.338923,95.729499
173.332272,95.759867
173.328190,95.771451
173.328184,95.771472
173.296909,95.860224
173.292297,95.874120
173.261572,95.972717
173.256625,95.983708
173.256624,95.983711
173.248624,96.001486
173.236158,96.032620
173.224632,96.065327
173.178814,96.157342
173.172138,96.171434
173.136166,96.251361
173.136157,96.251378
173.131214,96.262361
173.124985,96.272666
173.124976,96.272682
173.113037,96.292430
173.097324,96.320997
173.080270,96.355245
173.073486,96.365483
173.025469,96.437948
173.016620,96.451923
172.973129,96.523867
172.973124,96.523874
172.966894,96.534180
172.959460,96.543669
172.959455,96.543676
172.943010,96.564667
172.924492,96.590339
172.901376,96.625224
172.839133,96.697875
172.828077,96.711368
172.778447,96.774716
172.778438,96.774726
172.771007,96.784211
172.762486,96.792732
172.741083,96.814135
172.720217,96.836673
172.690659,96.871173
172.681572,96.879457
172.681568,96.879461
172.622636,96.933185
172.609304,96.945914
172.546411,97.008807
172.536930,97.016235
172.536922,97.016242
172.510268,97.037124
172.487540,97.056341
172.451316,97.089363
172.379118,97.140471
172.363580,97.152046
172.296380,97.204694
172.254021,97.230300
172.229929,97.246080
172.186974,97.276487
172.112163,97.316659
172.094552,97.326703
172.034880,97.362777
172.034867,97.362784
172.024561,97.369014
171.976157,97.390799
171.951150,97.403122
171.901640,97.429708
171.890185,97.434145
171.890182,97.434147
171.825837,97.459074
171.806214,97.467284
171.745914,97.494423
171.745909,97.494425
171.734917,97.499372
171.680806,97.516233
171.655384,97.525108
171.611110,97.542260
171.611103,97.542262
171.599640,97.546703
171.524257,97.565662
171.502903,97.571670
171.431672,97.593867
171.419808,97.596041
171.419804,97.596042
171.372409,97.604727
171.347025,97.610238
171.285551,97.625700
171.211963,97.634811
171.189120,97.638315
171.119248,97.651121
171.055532,97.654975
171.030592,97.657270
170.964135,97.665500
170.893592,97.665500
170.869501,97.666228
170.802200,97.670299
170.723983,97.665567
170.722504,97.665500
170.721313,97.665500
170.642455,97.660636
170.485152,97.651121
170.483614,97.650838
170.478944,97.650551
170.324530,97.621685
170.324410,97.621663
170.172728,97.593867
170.168256,97.592473
170.160588,97.591040
170.014321,97.544508
170.013091,97.544121
169.869483,97.499372
169.862367,97.496169
169.851958,97.492858
169.716270,97.430431
169.713253,97.429058
169.590851,97.373970
169.590852,97.373970
169.579839,97.369014
169.572271,97.364437
169.568924,97.362641
169.557733,97.357493
169.433670,97.280675
169.430271,97.278595
169.308020,97.204694
169.299790,97.198245
169.296955,97.196391
169.292842,97.193479
169.282372,97.186997
169.171566,97.097830
169.167616,97.094692
169.057989,97.008807
169.049453,97.000269
169.047886,96.998882
169.043315,96.995022
169.039630,96.991662
169.030051,96.983955
168.933525,96.884407
168.929341,96.880157
168.833393,96.784211
168.825947,96.774706
168.819164,96.767050
168.816486,96.764160
168.813160,96.760276
168.804594,96.751444
168.723167,96.643616
168.718972,96.638162
168.637506,96.534180
168.631264,96.523853
168.624416,96.513933
168.624109,96.514145
168.623447,96.513167
168.623620,96.513053
168.616825,96.502797
168.609418,96.492990
168.543659,96.379088
168.539627,96.372264
168.473186,96.262361
168.468236,96.251361
168.462630,96.240680
168.462484,96.240757
168.459110,96.234167
168.459113,96.234166
168.453634,96.223162
168.447483,96.212510
168.427092,96.164335
168.397629,96.094723
168.394053,96.086531
168.342828,95.972717
168.339241,95.961201
168.336043,95.952771
168.326353,95.926328
168.326038,95.925583
168.321243,95.914256
168.287202,95.794614
168.284413,95.785254
168.248333,95.669472
168.245887,95.656119
168.237180,95.618805
168.232611,95.602749
168.214089,95.483425
168.212290,95.472789
168.191079,95.357048
168.190043,95.339904
168.186044,95.302754
168.182932,95.282711
168.179325,95.165577
168.178792,95.153902
168.171901,95.040000
168.173157,95.019256
168.173695,94.982868
168.173338,94.971279
168.172959,94.958994
168.183441,94.845889
168.184412,94.833190
168.187319,94.785131
168.191079,94.722952
168.195473,94.698976
168.200306,94.663881
168.202842,94.636505
168.226373,94.529060
168.229061,94.515692
168.248333,94.410528
168.251923,94.399007
168.251923,94.399006
168.256651,94.383834
168.265484,94.350474
168.272128,94.320133
168.307490,94.219786
168.312105,94.205878
168.328141,94.154416
168.342828,94.107283
168.355776,94.078514
168.368248,94.047365
168.379768,94.014673
168.425608,93.922614
168.432261,93.908572
168.473186,93.817639
168.491370,93.787559
168.507087,93.758983
168.524130,93.724755
168.578953,93.642020
168.587786,93.628069
168.637506,93.545820
168.644945,93.536325
168.644949,93.536319
168.661391,93.515333
168.679915,93.489652
168.696231,93.465028
168.703024,93.454776
168.711024,93.445438
168.711028,93.445433
168.765252,93.382143
168.776334,93.368619
168.800043,93.338357
168.833393,93.295789
168.863324,93.265858
168.884190,93.243319
168.905736,93.218170
168.905740,93.218166
168.913741,93.208827
168.981756,93.146823
168.995087,93.134095
169.049476,93.079706
169.049477,93.079705
169.057989,93.071193
169.067467,93.063767
169.067469,93.063765
169.094131,93.042877
169.116860,93.023659
169.144000,92.998918
169.144001,92.998917
169.153084,92.990637
169.225310,92.939508
169.240830,92.927946
169.298531,92.882740
169.298533,92.882739
169.308020,92.875306
169.318333,92.869071
169.318338,92.869068
169.350384,92.849695
169.374486,92.833908
169.407379,92.810624
169.407392,92.810616
169.417426,92.803513
169.428259,92.797696
169.428265,92.797692
169.492221,92.763348
169.509871,92.753283
169.579839,92.710986
169.590838,92.706035
169.590841,92.706034
169.628243,92.689200
169.653240,92.676882
169.691925,92.656109
169.691940,92.656102
169.702760,92.650292
169.714215,92.645854
169.714222,92.645851
169.778566,92.620924
169.798178,92.612719
169.844150,92.592029
169.869483,92.580628
169.880989,92.577042
169.880998,92.577039
169.923595,92.563765
169.949015,92.554892
169.993303,92.537735
169.993309,92.537733
170.004760,92.533297
170.016670,92.530301
170.016684,92.530297
170.080132,92.514339
170.101506,92.508326
170.161223,92.489718
170.161225,92.489717
170.172728,92.486133
170.184580,92.483961
170.184592,92.483958
170.231999,92.475270
170.257391,92.469757
170.280537,92.463936
170.318849,92.454300
170.331051,92.452789
170.392426,92.445189
170.415314,92.441677
170.473289,92.431052
170.473305,92.431050
170.485152,92.428879
170.497179,92.428151
170.497198,92.428149
170.548895,92.425021
170.573818,92.422727
170.600989,92.419363
170.640265,92.414500
170.652555,92.414500
170.710808,92.414500
170.734899,92.413772
170.790165,92.410429
170.802200,92.409701
170.814235,92.410429
170.814237,92.410429
170.880418,92.414432
170.881908,92.414500
170.883087,92.414500
170.961947,92.419363
170.961946,92.419363
171.110351,92.428340
171.110364,92.428341
171.119248,92.428879
171.120787,92.429161
171.125456,92.429449
171.137519,92.431703
171.137536,92.431706
171.279311,92.458208
171.280699,92.458465
171.421956,92.484352
171.421969,92.484354
171.431672,92.486133
171.436145,92.487526
171.443812,92.488960
171.455509,92.492680
171.455513,92.492682
171.589517,92.535311
171.591764,92.536019
171.723430,92.577048
171.723437,92.577050
171.734917,92.580628
171.742034,92.583830
171.752442,92.587142
171.763594,92.592272
171.763600,92.592275
171.888165,92.649583
171.891170,92.650951
172.013558,92.706034
172.024561,92.710986
172.032093,92.715538
172.035508,92.717372
172.046667,92.722507
172.170711,92.799310
172.174189,92.801438
172.177620,92.803513
172.286079,92.869078
172.286089,92.869084
172.296380,92.875306
172.304595,92.881740
172.307471,92.883622
172.311603,92.886546
172.322028,92.893003
172.331587,92.900694
172.331594,92.900700
172.432854,92.982183
172.436920,92.985411
172.485739,93.023659
172.546411,93.071193
172.554924,93.079704
172.556564,93.081158
172.561085,93.084976
172.564777,93.088341
172.574349,93.096045
172.582904,93.104867
172.582910,93.104873
172.670844,93.195557
172.675149,93.199930
172.762497,93.287278
172.762505,93.287286
172.771007,93.295789
172.778428,93.305259
172.785285,93.313000
172.787918,93.315840
172.791266,93.319747
172.799806,93.328556
172.807204,93.338351
172.807208,93.338357
172.881178,93.436307
172.885495,93.441920
172.959466,93.536337
172.959477,93.536351
172.966894,93.545820
172.973124,93.556124
172.979976,93.566052
172.980277,93.565844
172.980958,93.566848
172.980789,93.566960
172.987576,93.577201
172.994982,93.587010
173.001123,93.597646
173.001128,93.597654
173.060715,93.700862
173.064800,93.707776
173.113030,93.787559
173.131214,93.817639
173.136164,93.828636
173.141765,93.839309
173.141908,93.839234
173.145291,93.845840
173.150771,93.856844
173.156917,93.867490
173.161705,93.878801
173.161714,93.878820
173.206753,93.985230
173.210344,93.993455
173.256623,94.096284
173.256630,94.096301
173.261572,94.107283
173.265157,94.118786
173.268297,94.127067
173.278026,94.153619
173.278364,94.154416
173.278372,94.154438
173.283157,94.165744
173.286517,94.177549
173.286518,94.177555
173.317168,94.285276
173.320000,94.294776
173.352479,94.399007
173.352487,94.399037
173.356067,94.410528
173.358237,94.422364
173.358247,94.422408
173.358525,94.423930
173.367207,94.461142
173.368424,94.465418
173.368430,94.465443
173.371789,94.477251
173.373672,94.489375
173.373675,94.489393
173.390311,94.596566
173.392124,94.607279
173.411149,94.711095
173.411151,94.711107
173.413321,94.722952
173.414049,94.734977
173.414050,94.734990
173.414361,94.740133
173.418351,94.777206
173.421468,94.797289
173.421847,94.809576
173.421847,94.809581
173.425076,94.914380
173.425615,94.926180
173.431771,95.027961
173.432499,95.040000
176.681700,95.040000
176.681700,87.704163
174.964185,87.704163
174.945720,87.721190
174.925746,87.734808
174.899969,87.749691
174.683800,87.853793
174.656077,87.864673
174.426822,87.935389
174.397791,87.942015
174.160545,87.977774
174.130847,87.980000
173.890933,87.980000
173.861236,87.977774
173.623990,87.942015
173.594959,87.935389
173.365703,87.864672
173.337980,87.853792
173.121821,87.749696
173.118507,87.747783
173.114754,87.746292
173.108366,87.743217
173.108148,87.743670
173.010763,87.705013
172.895272,87.695020
172.781783,87.718647
172.679875,87.773899
172.573150,87.853793
172.555205,87.867226
172.304051,88.004367
172.035936,88.104369
171.756318,88.165196
171.470890,88.185610
171.185462,88.165196
170.905844,88.104369
170.637729,88.004367
170.386575,87.867226
170.157495,87.695739
169.955151,87.493395
169.783664,87.264315
169.646523,87.013161
169.546521,86.745046
169.485694,86.465428
169.465280,86.180000
169.485694,85.894572
169.546521,85.614954
169.646523,85.346839
169.783664,85.095685
169.955151,84.866605
170.091756,84.730000
150.272200,84.730000
150.272200,100.970000
142.978350,100.970000
142.952200,100.970000
142.952200,84.730000
150.272200,84.730000
170.091756,84.730000
170.157495,84.664261
170.225006,84.613723
170.375173,84.501309
170.375177,84.501306
170.386575,84.492774
170.399071,84.485951
170.399075,84.485948
170.589030,84.382225
170.637729,84.355633
170.651072,84.350656
170.651077,84.350654
170.892494,84.260610
170.892498,84.260608
170.905844,84.255631
171.185462,84.194804
171.199677,84.193787
171.199686,84.193786
171.456670,84.175407
171.470890,84.174390
171.485110,84.175407
171.742095,84.193786
171.742106,84.193787
171.756318,84.194804
172.035936,84.255631
172.049279,84.260607
172.049287,84.260610
172.290704,84.350654
172.290714,84.350658
172.304051,84.355633
172.316552,84.362459
172.316554,84.362460
172.542706,84.485948
172.542717,84.485954
172.555205,84.492774
172.566605,84.501307
172.566613,84.501313
172.679877,84.586101
172.781780,84.641351
172.895264,84.664978
173.010750,84.654989
173.108149,84.616331
173.108366,84.616783
173.114720,84.613723
173.118492,84.612226
173.121827,84.610300
173.337980,84.506207
173.365703,84.495327
173.594959,84.424610
173.623990,84.417984
173.861236,84.382225
173.890933,84.380000
174.130847,84.380000
174.160545,84.382225
174.397791,84.417984
174.426822,84.424610
174.656077,84.495326
174.683800,84.506206
174.899968,84.610308
174.925746,84.625190
174.945719,84.638808
174.964185,84.655835
174.949209,84.675996
173.727342,85.897863
173.653966,85.998857
173.615390,86.117582
173.615390,86.242416
173.653966,86.361141
173.727342,86.462134
174.949205,87.683997
174.964185,87.704163
176.681700,87.704163
176.681700,86.194892
175.814821,86.194892
175.796892,86.434141
175.792454,86.463583
175.739067,86.697490
175.730292,86.725940
175.642636,86.949284
175.629714,86.976114
175.550902,87.112621
175.534799,87.132686
175.514049,87.117472
174.595069,86.198493
174.580878,86.179999
174.595068,86.161507
175.514053,85.242522
175.534798,85.227311
175.550901,85.247376
175.629718,85.383891
175.642635,85.410714
175.730292,85.634059
175.739067,85.662509
175.792454,85.896416
175.796892,85.925858
175.814821,86.165108
175.814821,86.194892
176.681700,86.194892
176.681700,80.614163
174.964185,80.614163
174.945720,80.631190
174.925746,80.644808
174.899969,80.659691
174.683800,80.763793
174.656077,80.774673
174.426822,80.845389
174.397791,80.852015
174.160545,80.887774
174.130847,80.890000
173.890933,80.890000
173.861236,80.887774
173.623990,80.852015
173.594959,80.845389
173.365703,80.774672
173.337980,80.763792
173.121821,80.659696
173.118507,80.657783
173.114754,80.656292
173.108366,80.653217
173.108148,80.653670
173.010763,80.615013
172.895272,80.605020
172.781783,80.628647
172.679875,80.683899
172.573150,80.763793
172.555205,80.777226
172.304051,80.914367
172.035936,81.014369
171.756318,81.075196
171.470890,81.095610
171.185462,81.075196
170.905844,81.014369
170.637729,80.914367
170.386575,80.777226
170.157495,80.605739
169.955151,80.403395
169.783664,80.174315
169.646523,79.923161
169.546521,79.655046
169.485694,79.375428
169.465280,79.090000
169.485694,78.804572
169.546521,78.524954
169.646523,78.256839
169.783664,78.005685
169.822785,77.953426
169.899369,77.851121
169.955151,77.776605
170.157495,77.574261
170.226693,77.522460
170.375173,77.411309
170.375177,77.411306
170.386575,77.402774
170.399071,77.395951
170.399075,77.395948
170.589030,77.292225
170.637729,77.265633
170.651072,77.260656
170.651077,77.260654
170.892494,77.170610
170.892498,77.170608
170.905844,77.165631
171.185462,77.104804
171.199677,77.103787
171.199686,77.103786
171.456670,77.085407
171.470890,77.084390
171.485110,77.085407
171.742095,77.103786
171.742106,77.103787
171.756318,77.104804
172.035936,77.165631
172.049279,77.170607
172.049287,77.170610
172.290704,77.260654
172.290714,77.260658
172.304051,77.265633
172.316552,77.272459
172.316554,77.272460
172.542706,77.395948
172.542717,77.395954
172.555205,77.402774
172.566605,77.411307
172.566613,77.411313
172.679877,77.496101
172.781780,77.551351
172.895264,77.574978
173.010750,77.564989
173.108149,77.526331
173.108366,77.526783
173.114720,77.523723
173.118492,77.522226
173.121827,77.520300
173.337980,77.416207
173.365703,77.405327
173.594959,77.334610
173.623990,77.327984
173.861236,77.292225
173.890933,77.290000
174.130847,77.290000
174.160545,77.292225
174.397791,77.327984
174.426822,77.334610
174.656077,77.405326
174.683800,77.416206
174.899968,77.520308
174.925746,77.535190
174.945719,77.548808
174.964185,77.565835
174.949209,77.585996
173.727342,78.807863
173.653966,78.908857
173.615390,79.027582
173.615390,79.152416
173.653966,79.271141
173.727342,79.372134
174.949205,80.593997
174.964185,80.614163
176.681700,80.614163
176.681700,79.104892
175.814821,79.104892
175.796892,79.344141
175.792454,79.373583
175.739067,79.607490
175.730292,79.635940
175.642636,79.859284
175.629714,79.886114
175.550902,80.022621
175.534799,80.042686
175.514049,80.027472
174.595069,79.108493
174.580878,79.089999
174.595068,79.071507
175.514053,78.152522
175.534798,78.137311
175.550901,78.157376
175.629718,78.293891
175.642635,78.320714
175.730292,78.544059
175.739067,78.572509
175.792454,78.806416
175.796892,78.835858
175.814821,79.075108
175.814821,79.104892
176.681700,79.104892
176.681700,76.745000
160.275310,76.745000
160.274293,76.759220
160.255914,77.016204
160.255913,77.016213
160.254896,77.030428
160.194069,77.310046
160.189092,77.323392
160.189090,77.323396
160.105016,77.548808
160.094067,77.578161
160.032419,77.691060
159.964348,77.815724
159.956926,77.829315
159.948394,77.840713
159.948391,77.840717
159.809237,78.026605
159.785439,78.058395
159.583095,78.260739
159.354015,78.432226
159.102861,78.569367
158.834746,78.669369
158.555128,78.730196
158.269700,78.750610
157.984272,78.730196
157.704654,78.669369
157.436539,78.569367
157.185385,78.432226
156.956305,78.260739
156.753961,78.058395
156.582474,77.829315
156.445333,77.578161
156.345331,77.310046
156.284504,77.030428
156.264090,76.745000
152.675310,76.745000
152.674293,76.759220
152.655914,77.016204
152.655913,77.016213
152.654896,77.030428
152.594069,77.310046
152.589092,77.323392
152.589090,77.323396
152.505016,77.548808
152.494067,77.578161
152.432419,77.691060
152.364348,77.815724
152.356926,77.829315
152.348394,77.840713
152.348391,77.840717
152.209237,78.026605
152.185439,78.058395
151.983095,78.260739
151.754015,78.432226
151.502861,78.569367
151.234746,78.669369
150.955128,78.730196
150.669700,78.750610
150.384272,78.730196
150.104654,78.669369
149.836539,78.569367
149.585385,78.432226
149.356305,78.260739
149.153961,78.058395
148.982474,77.829315
148.845333,77.578161
148.745331,77.310046
148.684504,77.030428
148.664090,76.745000
148.684504,76.459572
148.745331,76.179954
148.845333,75.911839
148.982474,75.660685
149.153961,75.431605
149.356305,75.229261
149.367709,75.220724
149.573983,75.066309
149.573987,75.066306
149.585385,75.057774
149.597881,75.050951
149.597885,75.050948
149.723640,74.982281
149.836539,74.920633
149.849882,74.915656
149.849887,74.915654
150.091304,74.825610
150.091308,74.825608
150.104654,74.820631
150.384272,74.759804
150.398487,74.758787
150.398496,74.758786
150.655480,74.740407
150.669700,74.739390
150.683920,74.740407
150.940905,74.758786
150.940916,74.758787
150.955128,74.759804
151.234746,74.820631
151.248089,74.825607
151.248097,74.825610
151.489514,74.915654
151.489524,74.915658
151.502861,74.920633
151.515362,74.927459
151.515364,74.927460
151.741516,75.050948
151.741527,75.050954
151.754015,75.057774
151.765407,75.066301
151.765418,75.066309
151.971692,75.220724
151.971700,75.220730
151.983095,75.229261
151.993159,75.239324
151.993166,75.239331
152.175369,75.421534
152.175376,75.421541
152.185439,75.431605
152.193970,75.443000
152.193976,75.443008
152.348391,75.649282
152.348399,75.649293
152.356926,75.660685
152.363746,75.673173
152.363752,75.673184
152.487240,75.899336
152.494067,75.911839
152.499042,75.925176
152.499046,75.925186
152.589090,76.166603
152.589093,76.166611
152.594069,76.179954
152.654896,76.459572
152.655913,76.473784
152.655914,76.473795
152.674293,76.730780
152.675310,76.745000
156.264090,76.745000
156.284504,76.459572
156.345331,76.179954
156.445333,75.911839
156.582474,75.660685
156.753961,75.431605
156.956305,75.229261
156.967709,75.220724
157.173983,75.066309
157.173987,75.066306
157.185385,75.057774
157.197881,75.050951
157.197885,75.050948
157.323640,74.982281
157.436539,74.920633
157.449882,74.915656
157.449887,74.915654
157.691304,74.825610
157.691308,74.825608
157.704654,74.820631
157.984272,74.759804
157.998487,74.758787
157.998496,74.758786
158.255480,74.740407
158.269700,74.739390
158.283920,74.740407
158.540905,74.758786
158.540916,74.758787
158.555128,74.759804
158.834746,74.820631
158.848089,74.825607
158.848097,74.825610
159.089514,74.915654
159.089524,74.915658
159.102861,74.920633
159.115362,74.927459
159.115364,74.927460
159.341516,75.050948
159.341527,75.050954
159.354015,75.057774
159.365407,75.066301
159.365418,75.066309
159.571692,75.220724
159.571700,75.220730
159.583095,75.229261
159.593159,75.239324
159.593166,75.239331
159.775369,75.421534
159.775376,75.421541
159.785439,75.431605
159.793970,75.443000
159.793976,75.443008
159.948391,75.649282
159.948399,75.649293
159.956926,75.660685
159.963746,75.673173
159.963752,75.673184
160.087240,75.899336
160.094067,75.911839
160.099042,75.925176
160.099046,75.925186
160.189090,76.166603
160.189093,76.166611
160.194069,76.179954
160.254896,76.459572
160.255913,76.473784
160.255914,76.473795
160.274293,76.730780
160.275310,76.745000
176.681700,76.745000
176.681700,70.829500
176.668104,70.726231
176.628244,70.630000
176.564836,70.547364
176.482200,70.483956
176.385969,70.444096
176.282700,70.430500
120.081700,70.430500
Z" /> 
</g>
</g>
</g>
<g style="fill:#FFFFFF; fill-opacity:1.000000; 
stroke:#FFFFFF; stroke-width:0.000000; stroke-opacity:1; 
stroke-linecap:round; stroke-linejoin:round;">
<circle cx="148.012200" cy="129.160000" r="0.175000" /> 
</g>
<g style="fill:#FFFFFF; fill-opacity:1.000000; 
stroke:#FFFFFF; stroke-width:0.021200; stroke-opacity:1; 
stroke-linecap:round; stroke-linejoin:round;">
</g>
<g style="fill:#FFFFFF; fill-opacity:1.000000; 
stroke:#FFFFFF; stroke-width:0.000000; stroke-opacity:1; 
stroke-linecap:round; stroke-linejoin:round;">
<circle cx="144.522200" cy="74.980000" r="0.175000" /> 
</g>
<g style="fill:#FFFFFF; fill-opacity:1.000000; 
stroke:#FFFFFF; stroke-width:0.021200; stroke-opacity:1; 
stroke-linecap:round; stroke-linejoin:round;">
</g>
<g style="fill:#FFFFFF; fill-opacity:1.000000; 
stroke:#FFFFFF; stroke-width:0.000000; stroke-opacity:1; 
stroke-linecap:round; stroke-linejoin:round;">
<circle cx="124.592200" cy="118.750000" r="0.175000" /> 
</g>
<g style="fill:#FFFFFF; fill-opacity:1.000000; 
stroke:#FFFFFF; stroke-width:0.021200; stroke-opacity:1; 
stroke-linecap:round; stroke-linejoin:round;">
</g>
<g style="fill:#FFFFFF; fill-opacity:1.000000; 
stroke:#FFFFFF; stroke-width:0.000000; stroke-opacity:1; 
stroke-linecap:round; stroke-linejoin:round;">
<circle cx="163.360104" cy="127.306568" r="0.175000" /> 
</g>
<g style="fill:#FFFFFF; fill-opacity:1.000000; 
stroke:#FFFFFF; stroke-width:0.021200; stroke-opacity:1; 
stroke-linecap:round; stroke-linejoin:round;">
</g>
<g style="fill:#FFFFFF; fill-opacity:1.000000; 
stroke:#FFFFFF; stroke-width:0.000000; stroke-opacity:1; 
stroke-linecap:round; stroke-linejoin:round;">
<circle cx="137.602200" cy="109.900000" r="0.175000" /> 
</g>
<g style="fill:#FFFFFF; fill-opacity:1.000000; 
stroke:#FFFFFF; stroke-width:0.021200; stroke-opacity:1; 
stroke-linecap:round; stroke-linejoin:round;">
</g>
<g style="fill:#FFFFFF; fill-opacity:1.000000; 
stroke:#FFFFFF; stroke-width:0.000000; stroke-opacity:1; 
stroke-linecap:round; stroke-linejoin:round;">
<circle cx="159.482200" cy="109.180000" r="0.175000" /> 
</g>
<g style="fill:#FFFFFF; fill-opacity:1.000000; 
stroke:#FFFFFF; stroke-width:0.021200; stroke-opacity:1; 
stroke-linecap:round; stroke-linejoin:round;">
</g>
<g style="fill:#FFFFFF; fill-opacity:1.000000; 
stroke:#FFFFFF; stroke-width:0.000000; stroke-opacity:1; 
stroke-linecap:round; stroke-linejoin:round;">
<circle cx="137.327200" cy="125.820000" r="0.175000" /> 
</g>
<g style="fill:#FFFFFF; fill-opacity:1.000000; 
stroke:#FFFFFF; stroke-width:0.021200; stroke-opacity:1; 
stroke-linecap:round; stroke-linejoin:round;">
</g>
<g style="fill:#FFFFFF; fill-opacity:1.000000; 
stroke:#FFFFFF; stroke-width:0.000000; stroke-opacity:1; 
stroke-linecap:round; stroke-linejoin:round;">
<circle cx="139.112200" cy="81.480000" r="0.175000" /> 
</g>
<g style="fill:#FFFFFF; fill-opacity:1.000000; 
stroke:#FFFFFF; stroke-width:0.021200; stroke-opacity:1; 
stroke-linecap:round; stroke-linejoin:round;">
</g>
<g style="fill:#FFFFFF; fill-opacity:1.000000; 
stroke:#FFFFFF; stroke-width:0.000000; stroke-opacity:1; 
stroke-linecap:round; stroke-linejoin:round;">
<circle cx="125.862200" cy="80.460000" r="0.175000" /> 
</g>
<g style="fill:#FFFFFF; fill-opacity:1.000000; 
stroke:#FFFFFF; stroke-width:0.021200; stroke-opacity:1; 
stroke-linecap:round; stroke-linejoin:round;">
</g>
<g style="fill:#FFFFFF; fill-opacity:1.000000; 
stroke:#FFFFFF; stroke-width:0.000000; stroke-opacity:1; 
stroke-linecap:round; stroke-linejoin:round;">
<circle cx="142.102200" cy="80.930000" r="0.175000" /> 
</g>
<g style="fill:#FFFFFF; fill-opacity:1.000000; 
stroke:#FFFFFF; stroke-width:0.021200; stroke-opacity:1; 
stroke-linecap:round; stroke-linejoin:round;">
</g>
<g style="fill:#FFFFFF; fill-opacity:1.000000; 
stroke:#FFFFFF; stroke-width:0.000000; stroke-opacity:1; 
stroke-linecap:round; stroke-linejoin:round;">
<circle cx="128.342200" cy="79.340000" r="0.175000" /> 
</g>
<g style="fill:#FFFFFF; fill-opacity:1.000000; 
stroke:#FFFFFF; stroke-width:0.021200; stroke-opacity:1; 
stroke-linecap:round; stroke-linejoin:round;">
</g>
<g style="fill:#FFFFFF; fill-opacity:1.000000; 
stroke:#FFFFFF; stroke-width:0.000000; stroke-opacity:1; 
stroke-linecap:round; stroke-linejoin:round;">
<circle cx="156.192200" cy="100.840000" r="0.175000" /> 
</g>
<g style="fill:#FFFFFF; fill-opacity:1.000000; 
stroke:#FFFFFF; stroke-width:0.021200; stroke-opacity:1; 
stroke-linecap:round; stroke-linejoin:round;">
</g>
<g style="fill:#FFFFFF; fill-opacity:1.000000; 
stroke:#FFFFFF; stroke-width:0.000000; stroke-opacity:1; 
stroke-linecap:round; stroke-linejoin:round;">
<circle cx="122.922200" cy="80.460000" r="0.175000" /> 
</g>
<g style="fill:#FFFFFF; fill-opacity:1.000000; 
stroke:#FFFFFF; stroke-width:0.021200; stroke-opacity:1; 
stroke-linecap:round; stroke-linejoin:round;">
</g>
<g style="fill:#FFFFFF; fill-opacity:1.000000; 
stroke:#FFFFFF; stroke-width:0.000000; stroke-opacity:1; 
stroke-linecap:round; stroke-linejoin:round;">
<circle cx="134.442200" cy="104.470000" r="0.175000" /> 
</g>
<g style="fill:#FFFFFF; fill-opacity:1.000000; 
stroke:#FFFFFF; stroke-width:0.021200; stroke-opacity:1; 
stroke-linecap:round; stroke-linejoin:round;">
</g>
<g style="fill:#FFFFFF; fill-opacity:1.000000; 
stroke:#FFFFFF; stroke-width:0.000000; stroke-opacity:1; 
stroke-linecap:round; stroke-linejoin:round;">
<circle cx="170.802200" cy="95.040000" r="0.175000" /> 
</g>
<g style="fill:#FFFFFF; fill-opacity:1.000000; 
stroke:#FFFFFF; stroke-width:0.021200; stroke-opacity:1; 
stroke-linecap:round; stroke-linejoin:round;">
</g>
<g style="fill:#FFFFFF; fill-opacity:1.000000; 
stroke:#FFFFFF; stroke-width:0.000000; stroke-opacity:1; 
stroke-linecap:round; stroke-linejoin:round;">
<circle cx="174.010890" cy="86.180000" r="0.175000" /> 
</g>
<g style="fill:#FFFFFF; fill-opacity:1.000000; 
stroke:#FFFFFF; stroke-width:0.021200; stroke-opacity:1; 
stroke-linecap:round; stroke-linejoin:round;">
</g>
<g style="fill:#FFFFFF; fill-opacity:1.000000; 
stroke:#FFFFFF; stroke-width:0.000000; stroke-opacity:1; 
stroke-linecap:round; stroke-linejoin:round;">
<circle cx="171.470890" cy="86.180000" r="0.175000" /> 
</g>
<g style="fill:#FFFFFF; fill-opacity:1.000000; 
stroke:#FFFFFF; stroke-width:0.021200; stroke-opacity:1; 
stroke-linecap:round; stroke-linejoin:round;">
</g>
<g style="fill:#FFFFFF; fill-opacity:1.000000; 
stroke:#FFFFFF; stroke-width:0.000000; stroke-opacity:1; 
stroke-linecap:round; stroke-linejoin:round;">
<circle cx="131.007200" cy="125.550000" r="0.175000" /> 
</g>
<g style="fill:#FFFFFF; fill-opacity:1.000000; 
stroke:#FFFFFF; stroke-width:0.021200; stroke-opacity:1; 
stroke-linecap:round; stroke-linejoin:round;">
</g>
<g style="fill:#FFFFFF; fill-opacity:1.000000; 
stroke:#FFFFFF; stroke-width:0.000000; stroke-opacity:1; 
stroke-linecap:round; stroke-linejoin:round;">
<circle cx="128.467200" cy="128.090000" r="0.175000" /> 
</g>
<g style="fill:#FFFFFF; fill-opacity:1.000000; 
stroke:#FFFFFF; stroke-width:0.021200; stroke-opacity:1; 
stroke-linecap:round; stroke-linejoin:round;">
</g>
<g style="fill:#FFFFFF; fill-opacity:1.000000; 
stroke:#FFFFFF; stroke-width:0.000000; stroke-opacity:1; 
stroke-linecap:round; stroke-linejoin:round;">
<circle cx="125.927200" cy="125.550000" r="0.175000" /> 
</g>
<g style="fill:#FFFFFF; fill-opacity:1.000000; 
stroke:#FFFFFF; stroke-width:0.021200; stroke-opacity:1; 
stroke-linecap:round; stroke-linejoin:round;">
</g>
<g style="fill:#FFFFFF; fill-opacity:1.000000; 
stroke:#FFFFFF; stroke-width:0.000000; stroke-opacity:1; 
stroke-linecap:round; stroke-linejoin:round;">
<circle cx="158.269700" cy="76.745000" r="0.175000" /> 
</g>
<g style="fill:#FFFFFF; fill-opacity:1.000000; 
stroke:#FFFFFF; stroke-width:0.021200; stroke-opacity:1; 
stroke-linecap:round; stroke-linejoin:round;">
</g>
<g style="fill:#FFFFFF; fill-opacity:1.000000; 
stroke:#FFFFFF; stroke-width:0.000000; stroke-opacity:1; 
stroke-linecap:round; stroke-linejoin:round;">
<circle cx="150.669700" cy="76.745000" r="0.175000" /> 
</g>
<g style="fill:#FFFFFF; fill-opacity:1.000000; 
stroke:#FFFFFF; stroke-width:0.021200; stroke-opacity:1; 
stroke-linecap:round; stroke-linejoin:round;">
</g>
<g style="fill:#FFFFFF; fill-opacity:1.000000; 
stroke:#FFFFFF; stroke-width:0.000000; stroke-opacity:1; 
stroke-linecap:round; stroke-linejoin:round;">
<circle cx="174.010890" cy="79.090000" r="0.175000" /> 
</g>
<g style="fill:#FFFFFF; fill-opacity:1.000000; 
stroke:#FFFFFF; stroke-width:0.021200; stroke-opacity:1; 
stroke-linecap:round; stroke-linejoin:round;">
</g>
<g style="fill:#FFFFFF; fill-opacity:1.000000; 
stroke:#FFFFFF; stroke-width:0.000000; stroke-opacity:1; 
stroke-linecap:round; stroke-linejoin:round;">
<circle cx="171.470890" cy="79.090000" r="0.175000" /> 
</g>
<g style="fill:#FFFFFF; fill-opacity:1.000000; 
stroke:#FFFFFF; stroke-width:0.021200; stroke-opacity:1; 
stroke-linecap:round; stroke-linejoin:round;">
</g>
<g style="fill:#FFFFFF; fill-opacity:1.000000; 
stroke:#FFFFFF; stroke-width:0.000000; stroke-opacity:1; 
stroke-linecap:round; stroke-linejoin:round;">
<circle cx="149.392200" cy="118.470000" r="0.175000" /> 
</g>
<g style="fill:#FFFFFF; fill-opacity:1.000000; 
stroke:#FFFFFF; stroke-width:0.021200; stroke-opacity:1; 
stroke-linecap:round; stroke-linejoin:round;">
</g>
<g style="fill:#FFFFFF; fill-opacity:1.000000; 
stroke:#FFFFFF; stroke-width:0.000000; stroke-opacity:1; 
stroke-linecap:round; stroke-linejoin:round;">
<circle cx="151.932200" cy="118.470000" r="0.175000" /> 
</g>
<g style="fill:#FFFFFF; fill-opacity:1.000000; 
stroke:#FFFFFF; stroke-width:0.021200; stroke-opacity:1; 
stroke-linecap:round; stroke-linejoin:round;">
</g>
<g style="fill:#FFFFFF; fill-opacity:1.000000; 
stroke:#FFFFFF; stroke-width:0.000000; stroke-opacity:1; 
stroke-linecap:round; stroke-linejoin:round;">
<circle cx="154.472200" cy="118.470000" r="0.175000" /> 
</g>
<g style="fill:#FFFFFF; fill-opacity:1.000000; 
stroke:#FFFFFF; stroke-width:0.021200; stroke-opacity:1; 
stroke-linecap:round; stroke-linejoin:round;">
</g>
<g style="fill:#FFFFFF; fill-opacity:1.000000; 
stroke:#FFFFFF; stroke-width:0.000000; stroke-opacity:1; 
stroke-linecap:round; stroke-linejoin:round;">
<circle cx="141.712200" cy="106.640000" r="0.175000" /> 
</g>
<g style="fill:#FFFFFF; fill-opacity:1.000000; 
stroke:#FFFFFF; stroke-width:0.021200; stroke-opacity:1; 
stroke-linecap:round; stroke-linejoin:round;">
</g>
<g style="fill:#FFFFFF; fill-opacity:1.000000; 
stroke:#FFFFFF; stroke-width:0.000000; stroke-opacity:1; 
stroke-linecap:round; stroke-linejoin:round;">
<circle cx="141.712200" cy="109.180000" r="0.175000" /> 
</g>
<g style="fill:#FFFFFF; fill-opacity:1.000000; 
stroke:#FFFFFF; stroke-width:0.021200; stroke-opacity:1; 
stroke-linecap:round; stroke-linejoin:round;">
</g>
<g style="fill:#FFFFFF; fill-opacity:1.000000; 
stroke:#FFFFFF; stroke-width:0.000000; stroke-opacity:1; 
stroke-linecap:round; stroke-linejoin:round;">
<circle cx="141.712200" cy="111.720000" r="0.175000" /> 
</g>
<g style="fill:#FFFFFF; fill-opacity:1.000000; 
stroke:#FFFFFF; stroke-width:0.021200; stroke-opacity:1; 
stroke-linecap:round; stroke-linejoin:round;">
</g>
<g style="fill:#FFFFFF; fill-opacity:1.000000; 
stroke:#FFFFFF; stroke-width:0.000000; stroke-opacity:1; 
stroke-linecap:round; stroke-linejoin:round;">
<circle cx="174.122200" cy="117.870000" r="0.175000" /> 
</g>
<g style="fill:#FFFFFF; fill-opacity:1.000000; 
stroke:#FFFFFF; stroke-width:0.021200; stroke-opacity:1; 
stroke-linecap:round; stroke-linejoin:round;">
</g>
<g style="fill:#FFFFFF; fill-opacity:1.000000; 
stroke:#FFFFFF; stroke-width:0.000000; stroke-opacity:1; 
stroke-linecap:round; stroke-linejoin:round;">
<circle cx="174.122200" cy="114.270000" r="0.175000" /> 
</g>
<g style="fill:#FFFFFF; fill-opacity:1.000000; 
stroke:#FFFFFF; stroke-width:0.021200; stroke-opacity:1; 
stroke-linecap:round; stroke-linejoin:round;">
</g>
<g style="fill:#FFFFFF; fill-opacity:1.000000; 
stroke:#FFFFFF; stroke-width:0.000000; stroke-opacity:1; 
stroke-linecap:round; stroke-linejoin:round;">
<circle cx="163.172200" cy="104.100000" r="0.175000" /> 
</g>
<g style="fill:#FFFFFF; fill-opacity:1.000000; 
stroke:#FFFFFF; stroke-width:0.021200; stroke-opacity:1; 
stroke-linecap:round; stroke-linejoin:round;">
</g>
<g style="fill:#FFFFFF; fill-opacity:1.000000; 
stroke:#FFFFFF; stroke-width:0.000000; stroke-opacity:1; 
stroke-linecap:round; stroke-linejoin:round;">
<circle cx="163.172200" cy="106.640000" r="0.175000" /> 
</g>
<g style="fill:#FFFFFF; fill-opacity:1.000000; 
stroke:#FFFFFF; stroke-width:0.021200; stroke-opacity:1; 
stroke-linecap:round; stroke-linejoin:round;">
</g>
<g style="fill:#FFFFFF; fill-opacity:1.000000; 
stroke:#FFFFFF; stroke-width:0.000000; stroke-opacity:1; 
stroke-linecap:round; stroke-linejoin:round;">
<circle cx="163.172200" cy="109.180000" r="0.175000" /> 
</g>
<g style="fill:#FFFFFF; fill-opacity:1.000000; 
stroke:#FFFFFF; stroke-width:0.021200; stroke-opacity:1; 
stroke-linecap:round; stroke-linejoin:round;">
</g>
<g style="fill:#000000; fill-opacity:1.000000; 
stroke:#000000; stroke-width:0.021200; stroke-opacity:1; 
stroke-linecap:round; stroke-linejoin:round;">
</g>
<g style="fill:#000000; fill-opacity:1.000000; 
stroke:#000000; stroke-width:0.100000; stroke-opacity:1; 
stroke-linecap:round; stroke-linejoin:round;">
</g>
<g style="fill:#000000; fill-opacity:0.0; 
stroke:#000000; stroke-width:0.100000; stroke-opacity:1; 
stroke-linecap:round; stroke-linejoin:round;">
<path d="M176.682200 70.430000
L119.682200 70.430000
" />
<path d="M119.682200 70.430000
L119.682200 130.430000
" />
<path d="M119.682200 130.430000
L176.682200 130.430000
" />
<path d="M176.682200 130.430000
L176.682200 70.430000
" />
<g >
</g>
<g >
</g>
<g >
</g>
<g >
</g>
<g >
</g>
<g >
</g>
<g >
</g>
<g >
</g>
<g >
</g>
<g >
</g>
<g >
</g>
<g >
</g>
<g >
</g>
<g >
</g>
<g >
</g>
<g >
</g>
<g >
</g>
<g >
</g>
<g >
</g>
<g >
</g>
<g >
</g>
<g >
</g>
<g >
</g>
<g >
</g>
<g >
</g>
<g >
</g>
<g >
</g>
<g >
</g>
<g >
</g>
<g >
</g>
<g >
</g>
<g >
</g>
<g >
</g>
<g >
</g>
<g >
</g>
<g >
</g>
<g >
</g>
<g >
</g>
<g >
</g>
<g >
</g>
<g >
</g>
<g >
</g>
</g> 
</svg>
